<?xml version="1.0" encoding="UTF-8"?>
<svg width="145px" height="94px" viewBox="0 0 145 94" version="1.1" xmlns="http://www.w3.org/2000/svg" xmlns:xlink="http://www.w3.org/1999/xlink">
    <title>Cloud</title>
    <g id="Page-1" stroke="none" stroke-width="1" fill="none" fill-rule="evenodd">
        <path d="M114.049,84.601 L34.272,84.601 C20.337,84.601 9,73.265 9,59.33 C9,45.395 20.337,34.058 34.272,34.058 C38.988,34.058 43.585,35.364 47.57,37.835 C49.683,39.144 52.456,38.495 53.766,36.382 C55.075,34.27 54.425,31.497 52.314,30.186 C47.58,27.251 42.212,25.527 36.662,25.141 C43.655,15.166 55.158,9 67.62,9 C88.464,9 105.421,25.957 105.421,46.801 C105.421,47.867 105.375,48.951 105.285,50.022 C105.057,52.747 104.53,55.445 103.722,58.042 C102.984,60.415 104.309,62.937 106.682,63.676 C107.126,63.815 107.577,63.881 108.02,63.881 C109.938,63.881 111.715,62.644 112.316,60.717 C113.318,57.496 113.97,54.152 114.254,50.776 C114.364,49.455 114.421,48.118 114.421,46.801 C114.421,45.21 114.339,43.639 114.184,42.089 C125.843,42.163 135.308,51.665 135.308,63.342 C135.308,75.064 125.771,84.601 114.049,84.601 M114.049,33.082 C113.491,33.082 112.935,33.101 112.379,33.132 C106.517,13.974 88.672,0 67.62,0 C49.751,0 33.443,10.217 25.601,26.172 C10.888,30.022 0,43.427 0,59.33 C0,78.227 15.374,93.601 34.272,93.601 L114.049,93.601 C130.734,93.601 144.308,80.027 144.308,63.342 C144.308,46.657 130.734,33.082 114.049,33.082" id="Cloud" fill="#404040"></path>
    </g>
</svg>