<?xml version="1.0" encoding="UTF-8"?>
<svg width="162px" height="125px" viewBox="0 0 162 125" version="1.1" xmlns="http://www.w3.org/2000/svg" xmlns:xlink="http://www.w3.org/1999/xlink">
    <title>Cloud_Sun</title>
    <g id="Page-1" stroke="none" stroke-width="1" fill="none" fill-rule="evenodd">
        <path d="M114.302,115.1226 L34.525,115.1226 C20.59,115.1226 9.253,103.7866 9.253,89.8516 C9.253,75.9166 20.59,64.5796 34.525,64.5796 C39.24,64.5796 43.838,65.8856 47.823,68.3566 C49.936,69.6656 52.709,69.0166 54.019,66.9036 C55.328,64.7916 54.678,62.0186 52.567,60.7076 C47.833,57.7726 42.465,56.0486 36.915,55.6626 C43.908,45.6876 55.411,39.5216 67.873,39.5216 C88.717,39.5216 105.674,56.4786 105.674,77.3226 C105.674,78.3886 105.628,79.4726 105.538,80.5436 C105.31,83.2686 104.783,85.9666 103.975,88.5636 C103.237,90.9366 104.562,93.4586 106.935,94.1976 C107.379,94.3366 107.83,94.4026 108.273,94.4026 C110.191,94.4026 111.968,93.1656 112.569,91.2386 C113.571,88.0176 114.223,84.6736 114.507,81.2976 C114.617,79.9766 114.674,78.6396 114.674,77.3226 C114.674,75.7316 114.592,74.1606 114.437,72.6106 C126.096,72.6846 135.561,82.1866 135.561,93.8636 C135.561,105.5856 126.024,115.1226 114.302,115.1226 M110.531,28.7786 C123.609,28.7786 134.247,39.4176 134.247,52.4956 C134.247,56.7116 133.148,60.7596 131.094,64.3186 C131.086,64.3306 131.076,64.3406 131.07,64.3526 C131.061,64.3686 131.057,64.3846 131.048,64.3996 C130.438,65.4486 129.745,66.4556 128.971,67.4106 C124.622,64.9896 119.621,63.6036 114.302,63.6036 C113.744,63.6036 113.188,63.6226 112.632,63.6536 C109.256,52.6216 101.908,43.3096 92.26,37.3946 C96.725,32.0066 103.411,28.7786 110.531,28.7786 M161.71,43.4706 C161.28,41.0246 158.951,39.3896 156.497,39.8206 L141.658,42.4366 C140.219,37.9946 137.86,33.9636 134.797,30.5766 L144.49,19.0246 C146.088,17.1216 145.84,14.2826 143.936,12.6846 C142.033,11.0886 139.194,11.3356 137.596,13.2396 L127.903,24.7916 C124.071,22.3796 119.708,20.7426 115.031,20.0966 L115.031,5.0266 C115.031,2.5416 113.017,0.5266 110.531,0.5266 C108.046,0.5266 106.031,2.5416 106.031,5.0266 L106.031,20.0966 C101.423,20.7396 97.048,22.3676 93.167,24.8006 L83.467,13.2396 C81.867,11.3356 79.03,11.0886 77.127,12.6846 C75.223,14.2826 74.975,17.1216 76.573,19.0246 L86.265,30.5766 C85.46,31.4656 84.704,32.4036 83.995,33.3846 C78.967,31.5336 73.536,30.5216 67.873,30.5216 C50.004,30.5216 33.696,40.7386 25.854,56.6936 C11.141,60.5436 0.253,73.9486 0.253,89.8516 C0.253,108.7486 15.627,124.1226 34.525,124.1226 L114.302,124.1226 C130.987,124.1226 144.561,110.5486 144.561,93.8636 C144.561,85.7336 141.331,78.3486 136.097,72.9056 C136.179,72.8026 136.259,72.6966 136.34,72.5926 L149.39,80.1266 C150.099,80.5356 150.872,80.7296 151.636,80.7296 C153.191,80.7296 154.703,79.9226 155.537,78.4786 C156.78,76.3266 156.042,73.5746 153.89,72.3316 L140.856,64.8076 C142.422,60.9476 143.247,56.7846 143.247,52.4956 C143.247,52.0946 143.231,51.6976 143.217,51.3016 L158.06,48.6846 C160.507,48.2526 162.142,45.9186 161.71,43.4706" id="Cloud_Sun" fill="#404040"></path>
    </g>
</svg>