<?xml version="1.0" encoding="UTF-8"?>
<svg width="145px" height="122px" viewBox="0 0 145 122" version="1.1" xmlns="http://www.w3.org/2000/svg" xmlns:xlink="http://www.w3.org/1999/xlink">
    <title>Fog</title>
    <g id="Page-1" stroke="none" stroke-width="1" fill="none" fill-rule="evenodd">
        <path d="M116.6145,112.5214 L116.6145,121.5213 L27.0365,121.5213 L27.0365,112.5214 L116.6145,112.5214 Z M112.1145,98.3773 C114.5995,98.3773 116.6145,100.3923 116.6145,102.8773 C116.6145,105.3623 114.5995,107.3773 112.1145,107.3773 L112.1145,107.3773 L31.5365,107.3773 C29.0515,107.3773 27.0365,105.3623 27.0365,102.8773 C27.0365,100.3923 29.0515,98.3773 31.5365,98.3773 L31.5365,98.3773 Z M67.62,5.68434189e-14 C88.672,5.68434189e-14 106.517,13.974 112.379,33.132 C112.935,33.101 113.491,33.082 114.049,33.082 C130.734,33.082 144.308,46.657 144.308,63.342 C144.308,80.027 130.734,93.601 114.049,93.601 L114.049,93.601 L34.272,93.601 C15.374,93.601 0,78.227 0,59.33 C0,43.427 10.888,30.022 25.601,26.172 C33.443,10.217 49.752,5.68434189e-14 67.62,5.68434189e-14 Z M67.62,9 C55.158,9 43.654,15.166 36.662,25.141 C42.212,25.527 47.58,27.251 52.314,30.186 C54.425,31.496 55.075,34.27 53.766,36.382 C52.456,38.495 49.683,39.144 47.57,37.835 C43.585,35.364 38.988,34.058 34.272,34.058 C20.337,34.058 9,45.395 9,59.33 C9,73.264 20.337,84.601 34.272,84.601 L34.272,84.601 L114.049,84.601 C125.771,84.601 135.308,75.064 135.308,63.342 C135.308,51.665 125.843,42.163 114.184,42.089 C114.339,43.639 114.421,45.21 114.421,46.801 C114.421,48.117 114.364,49.455 114.254,50.776 C113.97,54.152 113.318,57.496 112.316,60.717 C111.715,62.644 109.938,63.88 108.02,63.88 C107.577,63.88 107.127,63.815 106.682,63.676 C104.309,62.937 102.984,60.415 103.722,58.042 C104.53,55.445 105.057,52.747 105.285,50.022 C105.375,48.951 105.421,47.867 105.421,46.801 C105.421,25.957 88.464,9 67.62,9 Z" id="Fog" fill="#404040"></path>
    </g>
</svg>