<?xml version="1.0" encoding="UTF-8"?>
<svg width="152px" height="142px" viewBox="0 0 152 142" version="1.1" xmlns="http://www.w3.org/2000/svg" xmlns:xlink="http://www.w3.org/1999/xlink">
    <title>Fog_Moon</title>
    <g id="Page-1" stroke="none" stroke-width="1" fill="none" fill-rule="evenodd">
        <path d="M116.6144,132.1474 L116.6144,141.1473 L27.0364,141.1473 L27.0364,132.1474 L116.6144,132.1474 Z M112.1144,118.0033 C114.5994,118.0033 116.6144,120.0183 116.6144,122.5033 C116.6144,124.9883 114.5994,127.0033 112.1144,127.0033 L112.1144,127.0033 L31.5364,127.0033 C29.0514,127.0033 27.0364,124.9883 27.0364,122.5033 C27.0364,120.0183 29.0514,118.0033 31.5364,118.0033 L31.5364,118.0033 Z M109.564,-7.10542736e-14 C110.876,-7.10542736e-14 112.23,0.063 113.588,0.189 C115.016,0.321 116.296,1.125 117.033,2.355 C117.771,3.585 117.878,5.094 117.321,6.415 C116.269,8.918 115.735,11.584 115.735,14.34 C115.735,25.589 124.886,34.74 136.134,34.74 C139.066,34.74 141.887,34.133 144.52,32.935 C145.821,32.342 147.327,32.403 148.575,33.1 C149.824,33.796 150.668,35.045 150.848,36.463 C151.058,38.116 151.164,39.844 151.164,41.6 C151.164,51.811 147.526,61.405 140.869,68.984 C143.061,73.169 144.308,77.925 144.308,82.968 C144.308,99.653 130.734,113.227 114.048,113.227 L114.048,113.227 L34.272,113.227 C15.374,113.227 -1.42108547e-14,97.853 -1.42108547e-14,78.956 C-1.42108547e-14,63.053 10.888,49.648 25.6,45.798 C33.443,29.843 49.751,19.626 67.62,19.626 C69.776,19.626 71.894,19.785 73.973,20.069 C81.489,7.614 94.831,-7.10542736e-14 109.564,-7.10542736e-14 Z M67.62,28.626 C55.159,28.626 43.655,34.792 36.662,44.767 C42.212,45.152 47.579,46.877 52.313,49.812 C54.425,51.123 55.074,53.897 53.765,56.009 C52.455,58.121 49.679,58.77 47.568,57.461 C43.585,54.99 38.987,53.684 34.272,53.684 C20.337,53.684 9,65.021 9,78.956 C9,92.89 20.337,104.227 34.272,104.227 L34.272,104.227 L114.048,104.227 C125.771,104.227 135.308,94.69 135.308,82.968 C135.308,71.291 125.843,61.789 114.184,61.715 C114.339,63.265 114.421,64.836 114.421,66.427 C114.421,67.743 114.364,69.081 114.254,70.402 C113.969,73.783 113.317,77.126 112.316,80.343 C111.715,82.27 109.938,83.506 108.02,83.506 C107.577,83.506 107.127,83.441 106.682,83.302 C104.309,82.563 102.984,80.041 103.722,77.668 C104.529,75.075 105.055,72.376 105.285,69.647 C105.375,68.577 105.421,67.493 105.421,66.427 C105.421,45.583 88.464,28.626 67.62,28.626 Z M107.199,9.084 C97.569,9.769 88.898,14.627 83.275,22.328 C97.161,27.273 108.045,38.595 112.379,52.758 C112.935,52.727 113.491,52.708 114.048,52.708 C122.361,52.708 129.9,56.079 135.374,61.524 C139.472,56.245 141.821,49.887 142.129,43.129 C140.175,43.536 138.172,43.74 136.134,43.74 C119.923,43.74 106.735,30.551 106.735,14.34 C106.735,12.56 106.89,10.805 107.199,9.084 Z" id="Fog_Moon" fill="#404040"></path>
    </g>
</svg>