<?xml version="1.0" encoding="UTF-8"?>
<svg width="162px" height="152px" viewBox="0 0 162 152" version="1.1" xmlns="http://www.w3.org/2000/svg" xmlns:xlink="http://www.w3.org/1999/xlink">
    <title>Fog_Sun</title>
    <g id="Page-1" stroke="none" stroke-width="1" fill="none" fill-rule="evenodd">
        <path d="M116.6145,142.5164 L116.6145,151.5163 L27.0365,151.5163 L27.0365,142.5164 L116.6145,142.5164 Z M112.1145,128.3723 C114.5995,128.3723 116.6145,130.3873 116.6145,132.8723 C116.6145,135.3573 114.5995,137.3723 112.1145,137.3723 L112.1145,137.3723 L31.5365,137.3723 C29.0515,137.3723 27.0365,135.3573 27.0365,132.8723 C27.0365,130.3873 29.0515,128.3723 31.5365,128.3723 L31.5365,128.3723 Z M110.278,0 C112.764,0 114.778,2.015 114.778,4.5 L114.778,4.5 L114.778,19.569 C119.455,20.216 123.818,21.853 127.65,24.265 L127.65,24.265 L137.343,12.713 C138.941,10.809 141.78,10.561 143.683,12.158 C145.586,13.756 145.835,16.595 144.237,18.498 L144.237,18.498 L134.544,30.05 C137.607,33.437 139.966,37.468 141.405,41.91 L141.405,41.91 L156.244,39.294 C158.707,38.866 161.027,40.497 161.457,42.945 C161.889,45.392 160.254,47.726 157.807,48.158 L157.807,48.158 L142.963,50.774 C142.978,51.171 142.994,51.568 142.994,51.969 C142.994,56.258 142.169,60.421 140.603,64.281 L140.603,64.281 L153.637,71.805 C155.789,73.048 156.527,75.8 155.284,77.952 C154.45,79.396 152.938,80.203 151.383,80.203 C150.619,80.203 149.846,80.009 149.137,79.599 L149.137,79.599 L136.087,72.066 C136.006,72.17 135.927,72.276 135.844,72.379 C141.078,77.822 144.308,85.207 144.308,93.337 C144.308,110.022 130.734,123.596 114.049,123.596 L114.049,123.596 L34.272,123.596 C15.374,123.596 -1.42108547e-14,108.222 -1.42108547e-14,89.325 C-1.42108547e-14,73.422 10.888,60.017 25.601,56.167 C33.443,40.212 49.752,29.995 67.62,29.995 C73.283,29.995 78.714,31.007 83.742,32.858 C84.451,31.877 85.207,30.939 86.012,30.05 L86.012,30.05 L76.32,18.498 C74.722,16.595 74.971,13.756 76.874,12.158 C78.777,10.561 81.614,10.809 83.214,12.713 L83.214,12.713 L92.914,24.274 C96.795,21.841 101.17,20.212 105.778,19.569 L105.778,19.569 L105.778,4.5 C105.778,2.015 107.793,0 110.278,0 Z M67.62,38.995 C55.158,38.995 43.654,45.161 36.662,55.136 C42.212,55.522 47.58,57.246 52.314,60.181 C54.425,61.491 55.075,64.265 53.766,66.377 C52.456,68.49 49.683,69.139 47.57,67.83 C43.585,65.359 38.987,64.053 34.272,64.053 C20.337,64.053 9,75.39 9,89.325 C9,103.259 20.337,114.596 34.272,114.596 L34.272,114.596 L114.049,114.596 C125.771,114.596 135.308,105.059 135.308,93.337 C135.308,81.66 125.843,72.158 114.184,72.084 C114.339,73.634 114.421,75.205 114.421,76.796 C114.421,78.112 114.364,79.45 114.254,80.771 C113.97,84.147 113.318,87.491 112.316,90.712 C111.715,92.639 109.938,93.875 108.02,93.875 C107.577,93.875 107.127,93.81 106.682,93.671 C104.309,92.932 102.984,90.41 103.722,88.037 C104.53,85.44 105.057,82.742 105.285,80.017 C105.375,78.946 105.421,77.862 105.421,76.796 C105.421,55.952 88.464,38.995 67.62,38.995 Z M110.278,28.252 C103.158,28.252 96.472,31.48 92.007,36.868 C101.655,42.783 109.003,52.095 112.379,63.127 C112.935,63.096 113.491,63.077 114.049,63.077 C119.368,63.077 124.369,64.462 128.718,66.884 C129.492,65.929 130.185,64.922 130.795,63.873 C130.804,63.858 130.808,63.842 130.817,63.826 C130.823,63.814 130.833,63.804 130.841,63.792 C132.895,60.234 133.994,56.185 133.994,51.969 C133.994,38.891 123.356,28.252 110.278,28.252 Z" id="Fog_Sun" fill="#404040"></path>
    </g>
</svg>