<?xml version="1.0" encoding="UTF-8"?>
<svg width="152px" height="151px" viewBox="0 0 152 151" version="1.1" xmlns="http://www.w3.org/2000/svg" xmlns:xlink="http://www.w3.org/1999/xlink">
    <title>Hail_Moon</title>
    <g id="Page-1" stroke="none" stroke-width="1" fill="none" fill-rule="evenodd">
        <path d="M28.7218,127.7006 C30.4778,125.9436 33.3288,125.9436 35.0848,127.7006 C42.5236471,135.139447 42.8690231,144.971945 42.8841362,146.046387 L42.8848,146.1286 C42.8848,148.6146 40.8698,150.6286 38.3848,150.6286 C35.9088,150.6286 33.8988,148.6276 33.8848,146.1546 C33.8818,146.0026 33.7068,139.0516 28.7218,134.0646 C26.9638,132.3066 26.9638,129.4576 28.7218,127.7006 Z M64.8781,127.7011 C66.6341,125.9431 69.4831,125.9441 71.2411,127.7011 C72.9991,129.4581 72.9991,132.3071 71.2411,134.0641 C66.3853063,138.92183 66.0933394,145.643342 66.0787877,146.129659 L66.0781,146.1571 C66.0471,148.6201 64.0391,150.6141 61.5791,150.6141 L61.5791,150.6141 L61.5501,150.6141 C59.0751,150.5981 57.0781,148.6031 57.0781,146.1291 L57.0781,146.1291 L57.0787638,146.046887 C57.0938769,144.972445 57.4392529,135.139947 64.8781,127.7011 Z M49.9406,136.8154 C52.4256,136.8154 54.4406,138.8304 54.4406,141.3154 L54.4406,141.3154 L54.4406,142.0624 C54.4406,144.5474 52.4256,146.5624 49.9406,146.5624 C47.4556,146.5624 45.4406,144.5474 45.4406,142.0624 L45.4406,142.0624 L45.4406,141.3154 C45.4406,138.8304 47.4556,136.8154 49.9406,136.8154 Z M109.3537,119.7011 C111.1097,117.9431 113.9587,117.9441 115.7167,119.7011 C117.4747,121.4581 117.4747,124.3071 115.7167,126.0641 C110.7017,131.0811 110.5547,138.0861 110.5537,138.1571 C110.5227,140.6201 108.5147,142.6141 106.0547,142.6141 L106.0547,142.6141 L106.0257,142.6141 C103.5507,142.5981 101.5537,140.6031 101.5537,138.1291 L101.5537,138.1291 L101.553946,138.082268 C101.562108,137.212618 101.824135,127.230665 109.3537,119.7011 Z M94.4162,128.8154 C96.9012,128.8154 98.9162,130.8304 98.9162,133.3154 L98.9162,133.3154 L98.9162,134.0624 C98.9162,136.5474 96.9012,138.5624 94.4162,138.5624 C91.9312,138.5624 89.9162,136.5474 89.9162,134.0624 L89.9162,134.0624 L89.9162,133.3154 C89.9162,130.8304 91.9312,128.8154 94.4162,128.8154 Z M49.9406,93.2968 C52.4256,93.2968 54.4406,95.3118 54.4406,97.7968 L54.4406,97.7968 L54.4406,130.0768 C54.4406,132.5628 52.4256,134.5768 49.9406,134.5768 C47.4556,134.5768 45.4406,132.5628 45.4406,130.0768 L45.4406,130.0768 L45.4406,97.7968 C45.4406,95.3118 47.4556,93.2968 49.9406,93.2968 Z M94.9904,84.7944 C97.4754,84.7944 99.4904,86.8094 99.4904,89.2944 L99.4904,89.2944 L99.4904,121.5744 C99.4904,124.0604 97.4754,126.0744 94.9904,126.0744 C92.5054,126.0744 90.4904,124.0604 90.4904,121.5744 L90.4904,121.5744 L90.4904,89.2944 C90.4904,86.8094 92.5054,84.7944 94.9904,84.7944 Z M72.339,114.8154 C74.824,114.8154 76.839,116.8304 76.839,119.3154 L76.839,119.3154 L76.839,120.0624 C76.839,122.5474 74.824,124.5624 72.339,124.5624 C69.854,124.5624 67.839,122.5474 67.839,120.0624 L67.839,120.0624 L67.839,119.3154 C67.839,116.8304 69.854,114.8154 72.339,114.8154 Z M72.466,84.7944 C74.951,84.7944 76.966,86.8094 76.966,89.2944 L76.966,89.2944 L76.966,108.9444 C76.966,111.4304 74.951,113.4444 72.466,113.4444 C69.981,113.4444 67.966,111.4304 67.966,108.9444 L67.966,108.9444 L67.966,89.2944 C67.966,86.8094 69.981,84.7944 72.466,84.7944 Z M109.564,-1.13686838e-13 C110.876,-1.13686838e-13 112.23,0.063 113.588,0.188 C115.016,0.32 116.296,1.125 117.033,2.355 C117.771,3.585 117.878,5.093 117.321,6.415 C116.269,8.917 115.735,11.583 115.735,14.339 C115.735,25.588 124.886,34.74 136.134,34.74 C139.066,34.74 141.887,34.132 144.52,32.934 C145.821,32.342 147.326,32.402 148.575,33.099 C149.824,33.795 150.668,35.044 150.848,36.462 C151.058,38.115 151.164,39.843 151.164,41.6 C151.164,51.81 147.526,61.404 140.869,68.983 C143.061,73.169 144.308,77.924 144.308,82.967 C144.308,99.652 130.734,113.227 114.048,113.227 C111.563,113.227 109.548,111.212 109.548,108.727 C109.548,106.241 111.563,104.227 114.048,104.227 C125.771,104.227 135.308,94.689 135.308,82.967 C135.308,71.291 125.843,61.789 114.184,61.715 C114.339,63.265 114.421,64.836 114.421,66.426 C114.421,67.743 114.364,69.081 114.254,70.401 C113.969,73.782 113.317,77.126 112.316,80.342 C111.715,82.27 109.938,83.506 108.02,83.506 C107.577,83.506 107.127,83.44 106.682,83.302 C104.309,82.563 102.984,80.041 103.722,77.667 C104.529,75.074 105.055,72.375 105.285,69.646 C105.375,68.577 105.421,67.493 105.421,66.426 C105.421,45.583 88.464,28.625 67.62,28.625 C55.159,28.625 43.655,34.792 36.662,44.767 C42.212,45.152 47.579,46.876 52.313,49.812 C54.425,51.122 55.074,53.896 53.765,56.008 C52.455,58.12 49.679,58.77 47.568,57.46 C43.585,54.99 38.987,53.684 34.272,53.684 C20.337,53.684 9,65.021 9,78.955 C9,92.89 20.337,104.227 34.272,104.227 C36.757,104.227 38.772,106.241 38.772,108.727 C38.772,111.212 36.757,113.227 34.272,113.227 C15.374,113.227 -1.42108547e-14,97.853 -1.42108547e-14,78.955 C-1.42108547e-14,63.053 10.888,49.648 25.6,45.797 C33.443,29.843 49.751,19.625 67.62,19.625 C69.776,19.625 71.893,19.785 73.972,20.068 C81.488,7.613 94.831,-1.13686838e-13 109.564,-1.13686838e-13 Z M107.199,9.083 C97.569,9.768 88.898,14.627 83.275,22.328 C97.161,27.272 108.045,38.595 112.379,52.757 C112.935,52.727 113.491,52.708 114.048,52.708 C122.361,52.708 129.9,56.079 135.374,61.523 C139.472,56.244 141.821,49.886 142.129,43.129 C140.174,43.535 138.172,43.74 136.134,43.74 C119.923,43.74 106.735,30.551 106.735,14.339 C106.735,12.56 106.89,10.804 107.199,9.083 Z" id="Hail_Moon" fill="#404040"></path>
    </g>
</svg>