<?xml version="1.0" encoding="UTF-8"?>
<svg width="162px" height="161px" viewBox="0 0 162 161" version="1.1" xmlns="http://www.w3.org/2000/svg" xmlns:xlink="http://www.w3.org/1999/xlink">
    <title>Hail_Sun</title>
    <g id="Page-1" stroke="none" stroke-width="1" fill="none" fill-rule="evenodd">
        <path d="M28.7219,138.0701 C30.4779,136.3121 33.3269,136.3131 35.0849,138.0701 C42.5247118,145.508947 42.8701219,155.341445 42.8852362,156.415887 L42.8859,156.4981 C42.8859,158.9831 40.8709,160.9981 38.3859,160.9981 C35.9089,160.9981 33.8999,158.9961 33.8859,156.5231 C33.8829,156.3451 33.6999,149.4111 28.7219,144.4341 C26.9639,142.6761 26.9639,139.8271 28.7219,138.0701 Z M64.8781,138.0701 C66.6341,136.3121 69.4831,136.3131 71.2411,138.0701 C72.9991,139.8271 72.9991,142.6761 71.2411,144.4331 C66.3853063,149.29083 66.0933394,156.012342 66.0787877,156.498659 L66.0781,156.5261 C66.0471,158.9891 64.0391,160.9831 61.5791,160.9831 L61.5791,160.9831 L61.5501,160.9831 C59.0751,160.9671 57.0781,158.9721 57.0781,156.4981 L57.0781,156.4981 L57.0787638,156.415887 C57.0938769,155.341445 57.4392529,145.508947 64.8781,138.0701 Z M49.9416,147.1844 C52.4266,147.1844 54.4416,149.1994 54.4416,151.6844 L54.4416,151.6844 L54.4416,152.4314 C54.4416,154.9164 52.4266,156.9314 49.9416,156.9314 C47.4566,156.9314 45.4416,154.9164 45.4416,152.4314 L45.4416,152.4314 L45.4416,151.6844 C45.4416,149.1994 47.4566,147.1844 49.9416,147.1844 Z M109.3537,130.0701 C111.1097,128.3121 113.9587,128.3131 115.7167,130.0701 C117.4747,131.8271 117.4747,134.6761 115.7167,136.4331 C110.7017,141.4501 110.5547,148.4551 110.5537,148.5261 C110.5227,150.9891 108.5147,152.9831 106.0547,152.9831 L106.0547,152.9831 L106.0257,152.9831 C103.5507,152.9671 101.5537,150.9721 101.5537,148.4981 L101.5537,148.4981 L101.553946,148.451268 C101.562108,147.581618 101.824135,137.599665 109.3537,130.0701 Z M94.4162,139.1844 C96.9012,139.1844 98.9162,141.1994 98.9162,143.6844 L98.9162,143.6844 L98.9162,144.4314 C98.9162,146.9164 96.9012,148.9314 94.4162,148.9314 C91.9312,148.9314 89.9162,146.9164 89.9162,144.4314 L89.9162,144.4314 L89.9162,143.6844 C89.9162,141.1994 91.9312,139.1844 94.4162,139.1844 Z M49.9416,103.6658 C52.4266,103.6658 54.4416,105.6808 54.4416,108.1658 L54.4416,108.1658 L54.4416,140.4458 C54.4416,142.9318 52.4266,144.9458 49.9416,144.9458 C47.4566,144.9458 45.4416,142.9318 45.4416,140.4458 L45.4416,140.4458 L45.4416,108.1658 C45.4416,105.6808 47.4566,103.6658 49.9416,103.6658 Z M94.9904,95.1634 C97.4754,95.1634 99.4904,97.1784 99.4904,99.6634 L99.4904,99.6634 L99.4904,131.9434 C99.4904,134.4294 97.4754,136.4434 94.9904,136.4434 C92.5054,136.4434 90.4904,134.4294 90.4904,131.9434 L90.4904,131.9434 L90.4904,99.6634 C90.4904,97.1784 92.5054,95.1634 94.9904,95.1634 Z M72.3391,125.1844 C74.8241,125.1844 76.8391,127.1994 76.8391,129.6844 L76.8391,129.6844 L76.8391,130.4314 C76.8391,132.9164 74.8241,134.9314 72.3391,134.9314 C69.8541,134.9314 67.8391,132.9164 67.8391,130.4314 L67.8391,130.4314 L67.8391,129.6844 C67.8391,127.1994 69.8541,125.1844 72.3391,125.1844 Z M72.466,95.1634 C74.951,95.1634 76.966,97.1784 76.966,99.6634 L76.966,99.6634 L76.966,119.3134 C76.966,121.7994 74.951,123.8134 72.466,123.8134 C69.981,123.8134 67.966,121.7994 67.966,119.3134 L67.966,119.3134 L67.966,99.6634 C67.966,97.1784 69.981,95.1634 72.466,95.1634 Z M110.278,-1.42108547e-13 C112.764,-1.42108547e-13 114.778,2.014 114.778,4.5 L114.778,4.5 L114.778,19.569 C119.455,20.215 123.818,21.853 127.65,24.264 L127.65,24.264 L137.343,12.713 C138.941,10.809 141.78,10.561 143.683,12.158 C145.587,13.756 145.835,16.594 144.237,18.498 L144.237,18.498 L134.544,30.05 C137.607,33.437 139.966,37.468 141.405,41.91 L141.405,41.91 L156.244,39.293 C158.698,38.864 161.027,40.496 161.457,42.944 C161.889,45.391 160.254,47.725 157.807,48.157 L157.807,48.157 L142.963,50.774 C142.978,51.171 142.994,51.568 142.994,51.968 C142.994,56.257 142.169,60.42 140.603,64.28 L140.603,64.28 L153.637,71.805 C155.789,73.048 156.527,75.8 155.284,77.952 C154.45,79.395 152.938,80.203 151.383,80.203 C150.619,80.203 149.846,80.008 149.137,79.599 L149.137,79.599 L136.087,72.065 C136.006,72.169 135.927,72.275 135.844,72.379 C141.078,77.821 144.308,85.206 144.308,93.336 C144.308,110.021 130.734,123.596 114.049,123.596 C111.564,123.596 109.549,121.581 109.549,119.096 C109.549,116.61 111.564,114.596 114.049,114.596 C125.771,114.596 135.308,105.058 135.308,93.336 C135.308,81.66 125.843,72.158 114.184,72.084 C114.339,73.634 114.421,75.205 114.421,76.795 C114.421,78.112 114.364,79.45 114.254,80.77 C113.97,84.146 113.318,87.491 112.316,90.711 C111.715,92.639 109.938,93.875 108.02,93.875 C107.577,93.875 107.127,93.809 106.682,93.671 C104.309,92.932 102.984,90.41 103.722,88.036 C104.53,85.439 105.057,82.741 105.285,80.016 C105.375,78.946 105.421,77.862 105.421,76.795 C105.421,55.952 88.464,38.994 67.62,38.994 C55.158,38.994 43.654,45.161 36.662,55.136 C42.212,55.521 47.58,57.246 52.314,60.181 C54.425,61.491 55.075,64.264 53.766,66.377 C52.456,68.489 49.683,69.139 47.569,67.829 C43.585,65.359 38.987,64.053 34.272,64.053 C20.337,64.053 9,75.389 9,89.324 C9,103.259 20.337,114.596 34.272,114.596 C36.757,114.596 38.772,116.61 38.772,119.096 C38.772,121.581 36.757,123.596 34.272,123.596 C15.374,123.596 0,108.222 0,89.324 C0,73.421 10.888,60.016 25.601,56.166 C33.443,40.211 49.752,29.994 67.62,29.994 C73.283,29.994 78.714,31.007 83.742,32.858 C84.451,31.876 85.207,30.939 86.012,30.05 L86.012,30.05 L76.319,18.498 C74.722,16.594 74.97,13.756 76.874,12.158 C78.777,10.561 81.614,10.808 83.214,12.713 L83.214,12.713 L92.914,24.273 C96.795,21.841 101.17,20.212 105.778,19.569 L105.778,19.569 L105.778,4.5 C105.778,2.014 107.793,-1.42108547e-13 110.278,-1.42108547e-13 Z M110.278,28.252 C103.158,28.252 96.472,31.48 92.007,36.868 C101.655,42.783 109.003,52.095 112.379,63.126 C112.935,63.096 113.491,63.077 114.049,63.077 C119.368,63.077 124.369,64.462 128.718,66.883 C129.492,65.929 130.185,64.921 130.795,63.872 C130.804,63.857 130.808,63.841 130.817,63.826 C130.823,63.813 130.833,63.804 130.841,63.792 C132.895,60.233 133.994,56.185 133.994,51.968 C133.994,38.891 123.356,28.252 110.278,28.252 Z" id="Hail_Sun" fill="#404040"></path>
    </g>
</svg>