<?xml version="1.0" encoding="UTF-8"?>
<svg width="145px" height="131px" viewBox="0 0 145 131" version="1.1" xmlns="http://www.w3.org/2000/svg" xmlns:xlink="http://www.w3.org/1999/xlink">
    <title>Hail</title>
    <g id="Page-1" stroke="none" stroke-width="1" fill="none" fill-rule="evenodd">
        <path d="M28.7219,108.0761 C30.4779,106.3181 33.3269,106.3191 35.0849,108.0761 C42.5247118,115.514947 42.8701219,125.347445 42.8852362,126.421887 L42.8859,126.5041 C42.8859,128.9891 40.8709,131.0041 38.3859,131.0041 C35.9089,131.0041 33.8999,129.0021 33.8859,126.5291 C33.8829,126.3511 33.6999,119.4171 28.7219,114.4401 C26.9639,112.6821 26.9639,109.8331 28.7219,108.0761 Z M64.8781,108.0761 C66.6341,106.3181 69.4831,106.3191 71.2411,108.0761 C72.9991,109.8331 72.9991,112.6821 71.2411,114.4391 C66.3853063,119.29683 66.0933394,126.018342 66.0787877,126.504659 L66.0781,126.5321 C66.0471,128.9951 64.0391,130.9891 61.5791,130.9891 L61.5791,130.9891 L61.5501,130.9891 C59.0751,130.9731 57.0781,128.9781 57.0781,126.5041 L57.0781,126.5041 L57.0787638,126.421887 C57.0938769,125.347445 57.4392529,115.514947 64.8781,108.0761 Z M49.9416,117.1904 C52.4266,117.1904 54.4416,119.2054 54.4416,121.6904 L54.4416,121.6904 L54.4416,122.4374 C54.4416,124.9224 52.4266,126.9374 49.9416,126.9374 C47.4566,126.9374 45.4416,124.9224 45.4416,122.4374 L45.4416,122.4374 L45.4416,121.6904 C45.4416,119.2054 47.4566,117.1904 49.9416,117.1904 Z M109.3537,100.0761 C111.1097,98.3181 113.9587,98.3191 115.7167,100.0761 C117.4747,101.8331 117.4747,104.6821 115.7167,106.4391 C110.7017,111.4561 110.5547,118.4611 110.5537,118.5321 C110.5227,120.9951 108.5147,122.9891 106.0547,122.9891 L106.0547,122.9891 L106.0257,122.9891 C103.5507,122.9731 101.5537,120.9781 101.5537,118.5041 L101.5537,118.5041 L101.553946,118.457268 C101.562108,117.587618 101.824135,107.605665 109.3537,100.0761 Z M94.4162,109.1904 C96.9012,109.1904 98.9162,111.2054 98.9162,113.6904 L98.9162,113.6904 L98.9162,114.4374 C98.9162,116.9224 96.9012,118.9374 94.4162,118.9374 C91.9312,118.9374 89.9162,116.9224 89.9162,114.4374 L89.9162,114.4374 L89.9162,113.6904 C89.9162,111.2054 91.9312,109.1904 94.4162,109.1904 Z M49.9416,73.6718 C52.4266,73.6718 54.4416,75.6868 54.4416,78.1718 L54.4416,78.1718 L54.4416,110.4518 C54.4416,112.9378 52.4266,114.9518 49.9416,114.9518 C47.4566,114.9518 45.4416,112.9378 45.4416,110.4518 L45.4416,110.4518 L45.4416,78.1718 C45.4416,75.6868 47.4566,73.6718 49.9416,73.6718 Z M94.9904,65.1694 C97.4754,65.1694 99.4904,67.1844 99.4904,69.6694 L99.4904,69.6694 L99.4904,101.9494 C99.4904,104.4354 97.4754,106.4494 94.9904,106.4494 C92.5054,106.4494 90.4904,104.4354 90.4904,101.9494 L90.4904,101.9494 L90.4904,69.6694 C90.4904,67.1844 92.5054,65.1694 94.9904,65.1694 Z M72.3391,95.1904 C74.8241,95.1904 76.8391,97.2054 76.8391,99.6904 L76.8391,99.6904 L76.8391,100.4374 C76.8391,102.9224 74.8241,104.9374 72.3391,104.9374 C69.8541,104.9374 67.8391,102.9224 67.8391,100.4374 L67.8391,100.4374 L67.8391,99.6904 C67.8391,97.2054 69.8541,95.1904 72.3391,95.1904 Z M72.466,65.1694 C74.951,65.1694 76.966,67.1844 76.966,69.6694 L76.966,69.6694 L76.966,89.3194 C76.966,91.8054 74.951,93.8194 72.466,93.8194 C69.981,93.8194 67.966,91.8054 67.966,89.3194 L67.966,89.3194 L67.966,69.6694 C67.966,67.1844 69.981,65.1694 72.466,65.1694 Z M67.62,-1.13686838e-13 C88.672,-1.13686838e-13 106.517,13.975 112.379,33.132 C112.935,33.102 113.491,33.083 114.049,33.083 C130.734,33.083 144.308,46.657 144.308,63.342 C144.308,80.027 130.734,93.602 114.049,93.602 C111.564,93.602 109.549,91.587 109.549,89.102 C109.549,86.616 111.564,84.602 114.049,84.602 C125.771,84.602 135.308,75.064 135.308,63.342 C135.308,51.666 125.843,42.164 114.184,42.09 C114.339,43.64 114.421,45.211 114.421,46.801 C114.421,48.118 114.364,49.456 114.254,50.776 C113.97,54.152 113.318,57.497 112.316,60.717 C111.715,62.645 109.938,63.881 108.02,63.881 C107.577,63.881 107.127,63.815 106.682,63.677 C104.309,62.938 102.984,60.416 103.722,58.042 C104.53,55.445 105.057,52.747 105.285,50.022 C105.375,48.952 105.421,47.868 105.421,46.801 C105.421,25.958 88.464,9 67.62,9 C55.158,9 43.654,15.167 36.662,25.142 C42.212,25.527 47.58,27.252 52.314,30.187 C54.425,31.497 55.075,34.27 53.766,36.383 C52.456,38.495 49.683,39.145 47.57,37.835 C43.585,35.365 38.988,34.059 34.272,34.059 C20.337,34.059 9,45.396 9,59.33 C9,73.265 20.337,84.602 34.272,84.602 C36.757,84.602 38.772,86.616 38.772,89.102 C38.772,91.587 36.757,93.602 34.272,93.602 C15.374,93.602 0,78.228 0,59.33 C0,43.427 10.888,30.022 25.601,26.172 C33.443,10.217 49.752,-1.13686838e-13 67.62,-1.13686838e-13 Z" id="Hail" fill="#404040"></path>
    </g>
</svg>