<?xml version="1.0" encoding="UTF-8"?>
<svg width="97px" height="98px" viewBox="0 0 97 98" version="1.1" xmlns="http://www.w3.org/2000/svg" xmlns:xlink="http://www.w3.org/1999/xlink">
    <title>Moon</title>
    <g id="Page-1" stroke="none" stroke-width="1" fill="none" fill-rule="evenodd">
        <path d="M44.878,9.181 C24.775,11.1 9,28.083 9,48.681 C9,70.56 26.8,88.361 48.68,88.361 C65.07,88.361 79.615,78.207 85.543,63.415 C84.301,63.532 83.049,63.591 81.79,63.591 C59.888,63.591 42.069,45.772 42.069,23.87 C42.069,18.794 43.028,13.822 44.878,9.181 M48.68,97.361 C21.838,97.361 0,75.523 0,48.681 C0,21.838 21.838,-1.13686838e-13 48.68,-1.13686838e-13 C50.008,-1.13686838e-13 51.346,0.056 52.656,0.166 C54.236,0.3 55.629,1.253 56.323,2.678 C57.019,4.102 56.913,5.787 56.046,7.114 C52.79,12.092 51.069,17.887 51.069,23.87 C51.069,40.809 64.851,54.591 81.79,54.591 C84.83,54.591 87.815,54.152 90.659,53.285 C92.174,52.825 93.827,53.195 94.999,54.264 C96.173,55.331 96.696,56.939 96.378,58.493 C91.769,81.014 71.709,97.361 48.68,97.361" id="Moon" fill="#404040"></path>
    </g>
</svg>