<?xml version="1.0" encoding="UTF-8"?>
<svg width="152px" height="151px" viewBox="0 0 152 151" version="1.1" xmlns="http://www.w3.org/2000/svg" xmlns:xlink="http://www.w3.org/1999/xlink">
    <title>Rain_Heavy_Moon</title>
    <g id="Page-1" stroke="none" stroke-width="1" fill="none" fill-rule="evenodd">
        <path d="M72.34,93.5156 C74.825,93.5156 76.84,95.5306 76.84,98.0156 L76.84,98.0156 L76.84,146.4406 C76.84,148.9266 74.825,150.9406 72.34,150.9406 C69.855,150.9406 67.84,148.9266 67.84,146.4406 L67.84,146.4406 L67.84,98.0156 C67.84,95.5306 69.855,93.5156 72.34,93.5156 Z M49.9406,82.3989 C52.4256,82.3989 54.4406,84.4139 54.4406,86.8989 L54.4406,86.8989 L54.4406,135.3239 C54.4406,137.8099 52.4256,139.8239 49.9406,139.8239 C47.4556,139.8239 45.4406,137.8099 45.4406,135.3239 L45.4406,135.3239 L45.4406,86.8989 C45.4406,84.4139 47.4556,82.3989 49.9406,82.3989 Z M94.7394,82.3989 C97.2244,82.3989 99.2394,84.4139 99.2394,86.8989 L99.2394,86.8989 L99.2394,135.3239 C99.2394,137.8099 97.2244,139.8239 94.7394,139.8239 C92.2544,139.8239 90.2394,137.8099 90.2394,135.3239 L90.2394,135.3239 L90.2394,86.8989 C90.2394,84.4139 92.2544,82.3989 94.7394,82.3989 Z M109.564,0 C110.876,0 112.23,0.063 113.588,0.188 C115.016,0.32 116.296,1.125 117.033,2.355 C117.771,3.585 117.878,5.093 117.321,6.415 C116.269,8.917 115.735,11.584 115.735,14.34 C115.735,25.588 124.886,34.74 136.134,34.74 C139.066,34.74 141.887,34.132 144.52,32.934 C145.821,32.342 147.327,32.403 148.575,33.1 C149.824,33.796 150.668,35.044 150.848,36.463 C151.058,38.115 151.164,39.843 151.164,41.6 C151.164,51.811 147.526,61.404 140.869,68.984 C143.061,73.169 144.308,77.924 144.308,82.967 C144.308,99.652 130.734,113.227 114.048,113.227 C111.563,113.227 109.548,111.212 109.548,108.727 C109.548,106.241 111.563,104.227 114.048,104.227 C125.771,104.227 135.308,94.69 135.308,82.967 C135.308,71.291 125.843,61.789 114.184,61.715 C114.339,63.265 114.421,64.836 114.421,66.426 C114.421,67.743 114.364,69.081 114.254,70.401 C113.969,73.782 113.317,77.126 112.316,80.342 C111.715,82.27 109.938,83.506 108.02,83.506 C107.577,83.506 107.126,83.44 106.682,83.302 C104.309,82.563 102.984,80.041 103.722,77.667 C104.529,75.074 105.055,72.375 105.285,69.646 C105.375,68.577 105.421,67.493 105.421,66.426 C105.421,45.583 88.464,28.625 67.62,28.625 C55.159,28.625 43.655,34.792 36.662,44.767 C42.212,45.152 47.579,46.877 52.313,49.812 C54.425,51.122 55.074,53.896 53.765,56.008 C52.455,58.121 49.679,58.77 47.568,57.46 C43.585,54.99 38.987,53.684 34.272,53.684 C20.337,53.684 9,65.021 9,78.955 C9,92.89 20.337,104.227 34.272,104.227 C36.757,104.227 38.772,106.241 38.772,108.727 C38.772,111.212 36.757,113.227 34.272,113.227 C15.374,113.227 -1.42108547e-14,97.853 -1.42108547e-14,78.955 C-1.42108547e-14,63.053 10.888,49.648 25.6,45.798 C33.443,29.843 49.751,19.625 67.62,19.625 C69.776,19.625 71.894,19.785 73.973,20.068 C81.488,7.613 94.831,0 109.564,0 Z M107.199,9.083 C97.569,9.769 88.897,14.627 83.275,22.328 C97.161,27.272 108.046,38.595 112.379,52.758 C112.935,52.727 113.491,52.708 114.048,52.708 C122.361,52.708 129.9,56.079 135.374,61.523 C139.472,56.245 141.821,49.886 142.129,43.129 C140.175,43.535 138.172,43.74 136.134,43.74 C119.923,43.74 106.735,30.551 106.735,14.34 C106.735,12.56 106.89,10.805 107.199,9.083 Z" id="Rain_Heavy_Moon" fill="#404040"></path>
    </g>
</svg>