<?xml version="1.0" encoding="UTF-8"?>
<svg width="162px" height="162px" viewBox="0 0 162 162" version="1.1" xmlns="http://www.w3.org/2000/svg" xmlns:xlink="http://www.w3.org/1999/xlink">
    <title>Rain_Light_Sun</title>
    <g id="Page-1" stroke="none" stroke-width="1" fill="none" fill-rule="evenodd">
        <path d="M72.34,152.267 C74.825,152.267 76.84,154.282 76.84,156.767 L76.84,157.033 C76.84,159.518 74.825,161.533 72.34,161.533 C69.855,161.533 67.84,159.518 67.84,157.033 L67.84,156.767 C67.84,154.282 69.855,152.267 72.34,152.267 Z M49.9406,141.1507 C52.4256,141.1507 54.4406,143.1657 54.4406,145.6507 L54.4406,145.6507 L54.4406,145.9167 C54.4406,148.4017 52.4256,150.4167 49.9406,150.4167 C47.4556,150.4167 45.4406,148.4017 45.4406,145.9167 L45.4406,145.9167 L45.4406,145.6507 C45.4406,143.1657 47.4556,141.1507 49.9406,141.1507 Z M94.7395,141.1507 C97.2245,141.1507 99.2395,143.1657 99.2395,145.6507 L99.2395,145.6507 L99.2395,145.9167 C99.2395,148.4017 97.2245,150.4167 94.7395,150.4167 C92.2545,150.4167 90.2395,148.4017 90.2395,145.9167 L90.2395,145.9167 L90.2395,145.6507 C90.2395,143.1657 92.2545,141.1507 94.7395,141.1507 Z M72.34,130.7898 C74.825,130.7898 76.84,132.8048 76.84,135.2898 L76.84,135.2898 L76.84,142.5548 C76.84,145.0398 74.825,147.0548 72.34,147.0548 C69.855,147.0548 67.84,145.0398 67.84,142.5548 L67.84,142.5548 L67.84,135.2898 C67.84,132.8048 69.855,130.7898 72.34,130.7898 Z M49.9406,119.6727 C52.4256,119.6727 54.4406,121.6877 54.4406,124.1727 L54.4406,124.1727 L54.4406,131.4387 C54.4406,133.9237 52.4256,135.9387 49.9406,135.9387 C47.4556,135.9387 45.4406,133.9237 45.4406,131.4387 L45.4406,131.4387 L45.4406,124.1727 C45.4406,121.6877 47.4556,119.6727 49.9406,119.6727 Z M94.7395,119.6727 C97.2245,119.6727 99.2395,121.6877 99.2395,124.1727 L99.2395,124.1727 L99.2395,131.4387 C99.2395,133.9237 97.2245,135.9387 94.7395,135.9387 C92.2545,135.9387 90.2395,133.9237 90.2395,131.4387 L90.2395,131.4387 L90.2395,124.1727 C90.2395,121.6877 92.2545,119.6727 94.7395,119.6727 Z M72.34,103.8846 C74.825,103.8846 76.84,105.8996 76.84,108.3846 L76.84,108.3846 L76.84,119.6496 C76.84,122.1346 74.825,124.1496 72.34,124.1496 C69.855,124.1496 67.84,122.1346 67.84,119.6496 L67.84,119.6496 L67.84,108.3846 C67.84,105.8996 69.855,103.8846 72.34,103.8846 Z M110.278,0 C112.764,0 114.778,2.014 114.778,4.5 L114.778,4.5 L114.778,19.569 C119.455,20.215 123.818,21.853 127.65,24.264 L127.65,24.264 L137.343,12.713 C138.941,10.808 141.78,10.561 143.683,12.158 C145.587,13.756 145.835,16.594 144.237,18.498 L144.237,18.498 L134.544,30.05 C137.607,33.437 139.966,37.468 141.405,41.91 L141.405,41.91 L156.244,39.294 C158.707,38.862 161.027,40.497 161.457,42.944 C161.889,45.391 160.254,47.725 157.807,48.157 L157.807,48.157 L142.963,50.774 C142.978,51.171 142.994,51.568 142.994,51.968 C142.994,56.257 142.169,60.42 140.603,64.28 L140.603,64.28 L153.637,71.805 C155.789,73.048 156.527,75.8 155.284,77.952 C154.45,79.395 152.938,80.203 151.383,80.203 C150.619,80.203 149.846,80.008 149.137,79.599 L149.137,79.599 L136.087,72.065 C136.006,72.169 135.927,72.275 135.844,72.379 C141.078,77.821 144.308,85.206 144.308,93.336 C144.308,110.021 130.734,123.596 114.049,123.596 C111.564,123.596 109.549,121.581 109.549,119.096 C109.549,116.61 111.564,114.596 114.049,114.596 C125.771,114.596 135.308,105.058 135.308,93.336 C135.308,81.66 125.843,72.158 114.184,72.084 C114.339,73.634 114.421,75.205 114.421,76.795 C114.421,78.112 114.364,79.449 114.254,80.77 C113.97,84.146 113.318,87.491 112.316,90.711 C111.715,92.639 109.938,93.875 108.02,93.875 C107.577,93.875 107.127,93.809 106.682,93.671 C104.309,92.932 102.984,90.41 103.722,88.036 C104.53,85.439 105.057,82.741 105.285,80.017 C105.375,78.946 105.421,77.862 105.421,76.795 C105.421,55.952 88.464,38.994 67.62,38.994 C55.158,38.994 43.654,45.161 36.662,55.136 C42.212,55.521 47.58,57.246 52.314,60.181 C54.425,61.491 55.075,64.264 53.766,66.377 C52.456,68.489 49.683,69.139 47.569,67.829 C43.585,65.359 38.987,64.053 34.272,64.053 C20.337,64.053 9,75.389 9,89.324 C9,103.259 20.337,114.596 34.272,114.596 C36.757,114.596 38.772,116.61 38.772,119.096 C38.772,121.581 36.757,123.596 34.272,123.596 C15.374,123.596 0,108.222 0,89.324 C0,73.421 10.888,60.016 25.601,56.166 C33.443,40.211 49.752,29.994 67.62,29.994 C73.283,29.994 78.714,31.007 83.742,32.858 C84.451,31.876 85.207,30.939 86.012,30.05 L86.012,30.05 L76.319,18.498 C74.722,16.594 74.97,13.756 76.874,12.158 C78.777,10.561 81.614,10.807 83.214,12.713 L83.214,12.713 L92.914,24.273 C96.795,21.841 101.17,20.212 105.778,19.569 L105.778,19.569 L105.778,4.5 C105.778,2.014 107.793,0 110.278,0 Z M49.9406,92.7679 C52.4256,92.7679 54.4406,94.7829 54.4406,97.2679 L54.4406,97.2679 L54.4406,108.5329 C54.4406,111.0179 52.4256,113.0329 49.9406,113.0329 C47.4556,113.0329 45.4406,111.0179 45.4406,108.5329 L45.4406,108.5329 L45.4406,97.2679 C45.4406,94.7829 47.4556,92.7679 49.9406,92.7679 Z M94.7395,92.7679 C97.2245,92.7679 99.2395,94.7829 99.2395,97.2679 L99.2395,97.2679 L99.2395,108.5329 C99.2395,111.0179 97.2245,113.0329 94.7395,113.0329 C92.2545,113.0329 90.2395,111.0179 90.2395,108.5329 L90.2395,108.5329 L90.2395,97.2679 C90.2395,94.7829 92.2545,92.7679 94.7395,92.7679 Z M110.278,28.252 C103.158,28.252 96.472,31.48 92.007,36.868 C101.655,42.783 109.003,52.095 112.379,63.126 C112.935,63.096 113.491,63.077 114.049,63.077 C119.368,63.077 124.369,64.462 128.718,66.883 C129.492,65.929 130.185,64.921 130.795,63.872 C130.804,63.857 130.808,63.841 130.817,63.826 C130.823,63.813 130.833,63.804 130.841,63.792 C132.895,60.233 133.994,56.185 133.994,51.968 C133.994,38.891 123.356,28.252 110.278,28.252 Z" id="Rain_Light_Sun" fill="#404040"></path>
    </g>
</svg>