<?xml version="1.0" encoding="UTF-8"?>
<svg width="145px" height="132px" viewBox="0 0 145 132" version="1.1" xmlns="http://www.w3.org/2000/svg" xmlns:xlink="http://www.w3.org/1999/xlink">
    <title>Rain_Light</title>
    <g id="Page-1" stroke="none" stroke-width="1" fill="none" fill-rule="evenodd">
        <path d="M72.34,122.2734 C74.825,122.2734 76.84,124.2884 76.84,126.7734 L76.84,126.7734 L76.84,127.0394 C76.84,129.5244 74.825,131.5394 72.34,131.5394 C69.855,131.5394 67.84,129.5244 67.84,127.0394 L67.84,127.0394 L67.84,126.7734 C67.84,124.2884 69.855,122.2734 72.34,122.2734 Z M49.9406,111.1567 C52.4256,111.1567 54.4406,113.1717 54.4406,115.6567 L54.4406,115.6567 L54.4406,115.9227 C54.4406,118.4077 52.4256,120.4227 49.9406,120.4227 C47.4556,120.4227 45.4406,118.4077 45.4406,115.9227 L45.4406,115.9227 L45.4406,115.6567 C45.4406,113.1717 47.4556,111.1567 49.9406,111.1567 Z M94.7395,111.1567 C97.2245,111.1567 99.2395,113.1717 99.2395,115.6567 L99.2395,115.6567 L99.2395,115.9227 C99.2395,118.4077 97.2245,120.4227 94.7395,120.4227 C92.2545,120.4227 90.2395,118.4077 90.2395,115.9227 L90.2395,115.9227 L90.2395,115.6567 C90.2395,113.1717 92.2545,111.1567 94.7395,111.1567 Z M72.34,100.7958 C74.825,100.7958 76.84,102.8108 76.84,105.2958 L76.84,105.2958 L76.84,112.5608 C76.84,115.0458 74.825,117.0608 72.34,117.0608 C69.855,117.0608 67.84,115.0458 67.84,112.5608 L67.84,112.5608 L67.84,105.2958 C67.84,102.8108 69.855,100.7958 72.34,100.7958 Z M49.9406,89.6787 C52.4256,89.6787 54.4406,91.6937 54.4406,94.1787 L54.4406,94.1787 L54.4406,101.4447 C54.4406,103.9297 52.4256,105.9447 49.9406,105.9447 C47.4556,105.9447 45.4406,103.9297 45.4406,101.4447 L45.4406,101.4447 L45.4406,94.1787 C45.4406,91.6937 47.4556,89.6787 49.9406,89.6787 Z M94.7395,89.6787 C97.2245,89.6787 99.2395,91.6937 99.2395,94.1787 L99.2395,94.1787 L99.2395,101.4447 C99.2395,103.9297 97.2245,105.9447 94.7395,105.9447 C92.2545,105.9447 90.2395,103.9297 90.2395,101.4447 L90.2395,101.4447 L90.2395,94.1787 C90.2395,91.6937 92.2545,89.6787 94.7395,89.6787 Z M72.34,73.8906 C74.825,73.8906 76.84,75.9056 76.84,78.3906 L76.84,78.3906 L76.84,89.6556 C76.84,92.1406 74.825,94.1556 72.34,94.1556 C69.855,94.1556 67.84,92.1406 67.84,89.6556 L67.84,89.6556 L67.84,78.3906 C67.84,75.9056 69.855,73.8906 72.34,73.8906 Z M67.62,0 C88.672,0 106.517,13.975 112.379,33.132 C112.935,33.102 113.491,33.083 114.049,33.083 C130.734,33.083 144.308,46.657 144.308,63.342 C144.308,80.027 130.734,93.602 114.049,93.602 C111.564,93.602 109.549,91.587 109.549,89.102 C109.549,86.616 111.564,84.602 114.049,84.602 C125.771,84.602 135.308,75.064 135.308,63.342 C135.308,51.666 125.843,42.164 114.184,42.09 C114.339,43.64 114.421,45.211 114.421,46.801 C114.421,48.118 114.364,49.455 114.254,50.776 C113.97,54.152 113.318,57.497 112.316,60.717 C111.715,62.645 109.938,63.881 108.02,63.881 C107.577,63.881 107.127,63.815 106.682,63.677 C104.309,62.938 102.984,60.416 103.722,58.042 C104.53,55.445 105.057,52.747 105.285,50.023 C105.375,48.952 105.421,47.868 105.421,46.801 C105.421,25.958 88.464,9 67.62,9 C55.158,9 43.654,15.167 36.662,25.142 C42.212,25.527 47.58,27.252 52.314,30.187 C54.425,31.497 55.075,34.27 53.766,36.383 C52.456,38.495 49.683,39.145 47.57,37.835 C43.585,35.365 38.988,34.059 34.272,34.059 C20.337,34.059 9,45.396 9,59.33 C9,73.265 20.337,84.602 34.272,84.602 C36.757,84.602 38.772,86.616 38.772,89.102 C38.772,91.587 36.757,93.602 34.272,93.602 C15.374,93.602 0,78.228 0,59.33 C0,43.427 10.888,30.022 25.601,26.172 C33.443,10.217 49.752,0 67.62,0 Z M49.9406,62.7739 C52.4256,62.7739 54.4406,64.7889 54.4406,67.2739 L54.4406,67.2739 L54.4406,78.5389 C54.4406,81.0239 52.4256,83.0389 49.9406,83.0389 C47.4556,83.0389 45.4406,81.0239 45.4406,78.5389 L45.4406,78.5389 L45.4406,67.2739 C45.4406,64.7889 47.4556,62.7739 49.9406,62.7739 Z M94.7395,62.7739 C97.2245,62.7739 99.2395,64.7889 99.2395,67.2739 L99.2395,67.2739 L99.2395,78.5389 C99.2395,81.0239 97.2245,83.0389 94.7395,83.0389 C92.2545,83.0389 90.2395,81.0239 90.2395,78.5389 L90.2395,78.5389 L90.2395,67.2739 C90.2395,64.7889 92.2545,62.7739 94.7395,62.7739 Z" id="Rain_Light" fill="#404040"></path>
    </g>
</svg>