<?xml version="1.0" encoding="UTF-8"?>
<svg width="145px" height="132px" viewBox="0 0 145 132" version="1.1" xmlns="http://www.w3.org/2000/svg" xmlns:xlink="http://www.w3.org/1999/xlink">
    <title>Rain_Heavy</title>
    <g id="Page-1" stroke="none" stroke-width="1" fill="none" fill-rule="evenodd">
        <path d="M72.34,73.8906 C74.825,73.8906 76.84,75.9056 76.84,78.3906 L76.84,78.3906 L76.84,126.8156 C76.84,129.3016 74.825,131.3156 72.34,131.3156 C69.855,131.3156 67.84,129.3016 67.84,126.8156 L67.84,126.8156 L67.84,78.3906 C67.84,75.9056 69.855,73.8906 72.34,73.8906 Z M49.9406,62.7739 C52.4256,62.7739 54.4406,64.7889 54.4406,67.2739 L54.4406,67.2739 L54.4406,115.6989 C54.4406,118.1849 52.4256,120.1989 49.9406,120.1989 C47.4556,120.1989 45.4406,118.1849 45.4406,115.6989 L45.4406,115.6989 L45.4406,67.2739 C45.4406,64.7889 47.4556,62.7739 49.9406,62.7739 Z M94.7395,62.7739 C97.2245,62.7739 99.2395,64.7889 99.2395,67.2739 L99.2395,67.2739 L99.2395,115.6989 C99.2395,118.1849 97.2245,120.1989 94.7395,120.1989 C92.2545,120.1989 90.2395,118.1849 90.2395,115.6989 L90.2395,115.6989 L90.2395,67.2739 C90.2395,64.7889 92.2545,62.7739 94.7395,62.7739 Z M67.62,0 C88.672,0 106.517,13.975 112.379,33.133 C112.935,33.102 113.491,33.083 114.049,33.083 C130.734,33.083 144.308,46.657 144.308,63.342 C144.308,80.027 130.734,93.602 114.049,93.602 C111.564,93.602 109.549,91.587 109.549,89.102 C109.549,86.616 111.564,84.602 114.049,84.602 C125.771,84.602 135.308,75.065 135.308,63.342 C135.308,51.666 125.843,42.164 114.184,42.09 C114.339,43.64 114.421,45.211 114.421,46.801 C114.421,48.118 114.364,49.456 114.254,50.776 C113.97,54.152 113.318,57.497 112.316,60.717 C111.715,62.645 109.938,63.881 108.02,63.881 C107.577,63.881 107.126,63.815 106.682,63.677 C104.309,62.938 102.984,60.416 103.722,58.042 C104.53,55.446 105.057,52.747 105.285,50.022 C105.375,48.952 105.421,47.868 105.421,46.801 C105.421,25.958 88.464,9 67.62,9 C55.158,9 43.655,15.167 36.662,25.142 C42.212,25.527 47.58,27.252 52.314,30.187 C54.425,31.497 55.075,34.271 53.766,36.383 C52.456,38.496 49.683,39.145 47.57,37.835 C43.585,35.365 38.988,34.059 34.272,34.059 C20.337,34.059 9,45.396 9,59.33 C9,73.265 20.337,84.602 34.272,84.602 C36.757,84.602 38.772,86.616 38.772,89.102 C38.772,91.587 36.757,93.602 34.272,93.602 C15.374,93.602 0,78.228 0,59.33 C0,43.427 10.888,30.022 25.601,26.172 C33.443,10.218 49.751,0 67.62,0 Z" id="Rain_Heavy" fill="#404040"></path>
    </g>
</svg>