<?xml version="1.0" encoding="UTF-8"?>
<svg width="162px" height="162px" viewBox="0 0 162 162" version="1.1" xmlns="http://www.w3.org/2000/svg" xmlns:xlink="http://www.w3.org/1999/xlink">
    <title>Rain_Heavy_Sun</title>
    <g id="Page-1" stroke="none" stroke-width="1" fill="none" fill-rule="evenodd">
        <path d="M72.34,103.8846 C74.825,103.8846 76.84,105.8996 76.84,108.3846 L76.84,108.3846 L76.84,156.8096 C76.84,159.2956 74.825,161.3096 72.34,161.3096 C69.855,161.3096 67.84,159.2956 67.84,156.8096 L67.84,156.8096 L67.84,108.3846 C67.84,105.8996 69.855,103.8846 72.34,103.8846 Z M49.9406,92.7679 C52.4256,92.7679 54.4406,94.7829 54.4406,97.2679 L54.4406,97.2679 L54.4406,145.6929 C54.4406,148.1789 52.4256,150.1929 49.9406,150.1929 C47.4556,150.1929 45.4406,148.1789 45.4406,145.6929 L45.4406,145.6929 L45.4406,97.2679 C45.4406,94.7829 47.4556,92.7679 49.9406,92.7679 Z M94.7395,92.7679 C97.2245,92.7679 99.2395,94.7829 99.2395,97.2679 L99.2395,97.2679 L99.2395,145.6929 C99.2395,148.1789 97.2245,150.1929 94.7395,150.1929 C92.2545,150.1929 90.2395,148.1789 90.2395,145.6929 L90.2395,145.6929 L90.2395,97.2679 C90.2395,94.7829 92.2545,92.7679 94.7395,92.7679 Z M110.278,0 C112.764,0 114.778,2.014 114.778,4.5 L114.778,4.5 L114.778,19.569 C119.455,20.216 123.818,21.853 127.65,24.264 L127.65,24.264 L137.343,12.713 C138.941,10.808 141.78,10.561 143.683,12.158 C145.587,13.756 145.835,16.594 144.237,18.498 L144.237,18.498 L134.544,30.05 C137.607,33.437 139.966,37.468 141.405,41.91 L141.405,41.91 L156.244,39.294 C158.698,38.862 161.027,40.497 161.457,42.944 C161.889,45.391 160.254,47.725 157.807,48.157 L157.807,48.157 L142.964,50.774 C142.978,51.171 142.994,51.568 142.994,51.968 C142.994,56.257 142.169,60.42 140.603,64.28 L140.603,64.28 L153.637,71.805 C155.789,73.048 156.527,75.8 155.284,77.952 C154.45,79.396 152.938,80.203 151.383,80.203 C150.619,80.203 149.846,80.009 149.137,79.599 L149.137,79.599 L136.087,72.066 C136.006,72.17 135.926,72.275 135.844,72.379 C141.078,77.821 144.308,85.206 144.308,93.336 C144.308,110.021 130.734,123.596 114.049,123.596 C111.564,123.596 109.549,121.581 109.549,119.096 C109.549,116.61 111.564,114.596 114.049,114.596 C125.771,114.596 135.308,105.059 135.308,93.336 C135.308,81.66 125.843,72.158 114.184,72.084 C114.339,73.634 114.421,75.205 114.421,76.795 C114.421,78.112 114.364,79.45 114.254,80.77 C113.97,84.146 113.318,87.491 112.316,90.711 C111.715,92.639 109.938,93.875 108.02,93.875 C107.577,93.875 107.126,93.809 106.682,93.671 C104.309,92.932 102.984,90.41 103.722,88.036 C104.53,85.44 105.057,82.741 105.285,80.016 C105.375,78.946 105.421,77.862 105.421,76.795 C105.421,55.952 88.464,38.994 67.62,38.994 C55.158,38.994 43.655,45.161 36.662,55.136 C42.212,55.521 47.58,57.246 52.314,60.181 C54.425,61.491 55.075,64.265 53.766,66.377 C52.456,68.49 49.683,69.139 47.569,67.829 C43.585,65.359 38.987,64.053 34.272,64.053 C20.337,64.053 9,75.389 9,89.324 C9,103.259 20.337,114.596 34.272,114.596 C36.757,114.596 38.772,116.61 38.772,119.096 C38.772,121.581 36.757,123.596 34.272,123.596 C15.374,123.596 0,108.222 0,89.324 C0,73.421 10.888,60.016 25.601,56.166 C33.443,40.212 49.751,29.994 67.62,29.994 C73.283,29.994 78.714,31.007 83.742,32.858 C84.451,31.877 85.207,30.939 86.012,30.05 L86.012,30.05 L76.319,18.498 C74.722,16.594 74.97,13.756 76.874,12.158 C78.777,10.561 81.614,10.808 83.214,12.713 L83.214,12.713 L92.914,24.273 C96.795,21.841 101.17,20.212 105.778,19.569 L105.778,19.569 L105.778,4.5 C105.778,2.014 107.793,0 110.278,0 Z M110.278,28.252 C103.158,28.252 96.472,31.48 92.007,36.868 C101.655,42.783 109.003,52.095 112.379,63.127 C112.935,63.096 113.491,63.077 114.049,63.077 C119.368,63.077 124.369,64.462 128.718,66.883 C129.492,65.929 130.185,64.922 130.795,63.873 C130.804,63.858 130.808,63.841 130.817,63.826 C130.823,63.814 130.833,63.804 130.841,63.792 C132.895,60.233 133.994,56.185 133.994,51.968 C133.994,38.891 123.356,28.252 110.278,28.252 Z" id="Rain_Heavy_Sun" fill="#404040"></path>
    </g>
</svg>