<?xml version="1.0" encoding="UTF-8"?>
<svg width="162px" height="162px" viewBox="0 0 162 162" version="1.1" xmlns="http://www.w3.org/2000/svg" xmlns:xlink="http://www.w3.org/1999/xlink">
    <title>Snow_1_Sun</title>
    <g id="Page-1" stroke="none" stroke-width="1" fill="none" fill-rule="evenodd">
        <path d="M49.9403,130.8081 C52.4263,130.8081 54.4403,132.8231 54.4403,135.3081 L54.4403,135.3081 L54.4403,138.6761 L57.4233,137.1131 C59.6223,135.9591 62.3433,136.8101 63.4973,139.0111 C64.6503,141.2131 63.8013,143.9321 61.5993,145.0861 L61.5993,145.0861 L59.3113,146.2831 L61.5543,147.5641 C63.7123,148.7971 64.4633,151.5461 63.2293,153.7041 C62.3993,155.1571 60.8813,155.9731 59.3183,155.9731 C58.5613,155.9731 57.7953,155.7821 57.0913,155.3801 L57.0913,155.3801 L54.4403,153.8661 L54.4403,156.9181 C54.4403,159.4031 52.4263,161.4181 49.9403,161.4181 C47.4553,161.4181 45.4403,159.4031 45.4403,156.9181 L45.4403,156.9181 L45.4403,153.5501 L42.4573,155.1131 C41.7913,155.4621 41.0763,155.6281 40.3733,155.6281 C38.7523,155.6281 37.1873,154.7501 36.3833,153.2151 C35.2293,151.0131 36.0793,148.2941 38.2813,147.1401 L38.2813,147.1401 L40.5673,145.9421 L38.3263,144.6621 C36.1683,143.4291 35.4173,140.6801 36.6503,138.5221 C37.8823,136.3641 40.6303,135.6141 42.7893,136.8461 L42.7893,136.8461 L45.4403,138.3611 L45.4403,135.3081 C45.4403,132.8231 47.4553,130.8081 49.9403,130.8081 Z M94.8172,130.8086 C97.3032,130.8086 99.3172,132.8236 99.3172,135.3086 L99.3172,135.3086 L99.3172,138.6766 L102.3012,137.1136 C104.5032,135.9586 107.2222,136.8106 108.3752,139.0116 C109.5282,141.2126 108.6792,143.9326 106.4772,145.0856 L106.4772,145.0856 L104.1892,146.2836 L106.4322,147.5646 C108.5892,148.7976 109.3402,151.5456 108.1062,153.7036 C107.2762,155.1576 105.7582,155.9726 104.1952,155.9726 C103.4382,155.9726 102.6722,155.7816 101.9672,155.3796 L101.9672,155.3796 L99.3172,153.8666 L99.3172,156.9176 C99.3172,159.4036 97.3032,161.4176 94.8172,161.4176 C92.3322,161.4176 90.3172,159.4036 90.3172,156.9176 L90.3172,156.9176 L90.3172,153.5506 L87.3342,155.1136 C86.6682,155.4626 85.9532,155.6276 85.2502,155.6276 C83.6292,155.6276 82.0642,154.7496 81.2602,153.2146 C80.1062,151.0136 80.9562,148.2936 83.1582,147.1406 L83.1582,147.1406 L85.4442,145.9426 L83.2032,144.6616 C81.0462,143.4286 80.2952,140.6806 81.5282,138.5226 C82.7602,136.3636 85.5062,135.6146 87.6682,136.8466 L87.6682,136.8466 L90.3172,138.3596 L90.3172,135.3086 C90.3172,132.8236 92.3322,130.8086 94.8172,130.8086 Z M72.339,103.205 C74.824,103.205 76.839,105.22 76.839,107.705 L76.839,107.705 L76.839,111.073 L79.822,109.51 C82.023,108.355 84.742,109.206 85.897,111.408 C87.05,113.609 86.2,116.329 83.998,117.482 L83.998,117.482 L81.711,118.68 L83.953,119.96 C86.112,121.193 86.863,123.942 85.629,126.1 C84.799,127.554 83.28,128.369 81.718,128.369 C80.961,128.369 80.195,128.178 79.49,127.776 L79.49,127.776 L76.839,126.262 L76.839,129.314 C76.839,131.799 74.824,133.814 72.339,133.814 C69.854,133.814 67.839,131.799 67.839,129.314 L67.839,129.314 L67.839,125.947 L64.857,127.509 C64.191,127.858 63.476,128.024 62.773,128.024 C61.152,128.024 59.587,127.146 58.782,125.611 C57.629,123.41 58.479,120.69 60.681,119.536 L60.681,119.536 L62.967,118.339 L60.726,117.058 C58.568,115.826 57.817,113.077 59.05,110.919 C60.282,108.761 63.03,108.011 65.189,109.243 L65.189,109.243 L67.839,110.757 L67.839,107.705 C67.839,105.22 69.854,103.205 72.339,103.205 Z M110.278,-1.70530257e-13 C112.764,-1.70530257e-13 114.778,2.014 114.778,4.5 L114.778,4.5 L114.778,19.569 C119.455,20.215 123.818,21.853 127.65,24.264 L127.65,24.264 L137.343,12.713 C138.941,10.808 141.78,10.561 143.683,12.158 C145.587,13.756 145.835,16.594 144.237,18.498 L144.237,18.498 L134.544,30.05 C137.607,33.437 139.966,37.468 141.405,41.91 L141.405,41.91 L156.244,39.293 C158.698,38.863 161.027,40.497 161.457,42.944 C161.889,45.391 160.254,47.725 157.807,48.157 L157.807,48.157 L142.963,50.774 C142.978,51.171 142.994,51.568 142.994,51.968 C142.994,56.257 142.169,60.42 140.603,64.28 L140.603,64.28 L153.637,71.805 C155.789,73.048 156.527,75.8 155.284,77.952 C154.45,79.395 152.938,80.203 151.383,80.203 C150.619,80.203 149.846,80.008 149.137,79.599 L149.137,79.599 L136.087,72.065 C136.006,72.169 135.927,72.275 135.844,72.379 C141.078,77.821 144.308,85.206 144.308,93.336 C144.308,110.021 130.734,123.596 114.049,123.596 C111.564,123.596 109.549,121.581 109.549,119.096 C109.549,116.61 111.564,114.596 114.049,114.596 C125.771,114.596 135.308,105.058 135.308,93.336 C135.308,81.66 125.843,72.158 114.184,72.084 C114.339,73.634 114.421,75.205 114.421,76.795 C114.421,78.112 114.364,79.45 114.254,80.77 C113.97,84.146 113.318,87.491 112.316,90.711 C111.715,92.639 109.938,93.875 108.02,93.875 C107.577,93.875 107.127,93.809 106.682,93.671 C104.309,92.932 102.984,90.41 103.722,88.036 C104.53,85.439 105.057,82.741 105.285,80.016 C105.375,78.946 105.421,77.862 105.421,76.795 C105.421,55.952 88.464,38.994 67.62,38.994 C55.158,38.994 43.654,45.161 36.662,55.136 C42.212,55.521 47.58,57.246 52.314,60.181 C54.425,61.491 55.075,64.264 53.766,66.377 C52.456,68.489 49.683,69.139 47.569,67.829 C43.585,65.359 38.987,64.053 34.272,64.053 C20.337,64.053 9,75.389 9,89.324 C9,103.259 20.337,114.596 34.272,114.596 C36.757,114.596 38.772,116.61 38.772,119.096 C38.772,121.581 36.757,123.596 34.272,123.596 C15.374,123.596 0,108.222 0,89.324 C0,73.421 10.888,60.016 25.601,56.166 C33.443,40.211 49.752,29.994 67.62,29.994 C73.283,29.994 78.714,31.007 83.742,32.858 C84.451,31.876 85.207,30.939 86.012,30.05 L86.012,30.05 L76.319,18.498 C74.722,16.594 74.97,13.756 76.874,12.158 C78.777,10.561 81.614,10.807 83.214,12.713 L83.214,12.713 L92.914,24.273 C96.795,21.841 101.17,20.212 105.778,19.569 L105.778,19.569 L105.778,4.5 C105.778,2.014 107.793,-1.70530257e-13 110.278,-1.70530257e-13 Z M110.278,28.252 C103.158,28.252 96.472,31.48 92.007,36.868 C101.655,42.783 109.003,52.095 112.379,63.126 C112.935,63.096 113.491,63.077 114.049,63.077 C119.368,63.077 124.369,64.462 128.718,66.883 C129.492,65.929 130.185,64.921 130.795,63.872 C130.804,63.857 130.808,63.841 130.817,63.826 C130.823,63.813 130.833,63.804 130.841,63.792 C132.895,60.233 133.994,56.185 133.994,51.968 C133.994,38.891 123.356,28.252 110.278,28.252 Z" id="Snow_1_Sun" fill="#404040"></path>
    </g>
</svg>