<?xml version="1.0" encoding="UTF-8"?>
<svg width="145px" height="128px" viewBox="0 0 145 128" version="1.1" xmlns="http://www.w3.org/2000/svg" xmlns:xlink="http://www.w3.org/1999/xlink">
    <title>Snow_2</title>
    <g id="Page-1" stroke="none" stroke-width="1" fill="none" fill-rule="evenodd">
        <path d="M72.4178,96.8141 C74.9038,96.8141 76.9178,98.8291 76.9178,101.3141 L76.9178,101.3141 L76.9178,104.6821 L79.9018,103.1191 C82.1008,101.9641 84.8228,102.8171 85.9758,105.0171 C87.1288,107.2191 86.2798,109.9381 84.0778,111.0921 L84.0778,111.0921 L81.7898,112.2891 L84.0328,113.5701 C86.1908,114.8031 86.9418,117.5521 85.7078,119.7101 C84.8778,121.1631 83.3598,121.9791 81.7968,121.9791 C81.0398,121.9791 80.2738,121.7881 79.5698,121.3861 L79.5698,121.3861 L76.9178,119.8711 L76.9178,122.9241 C76.9178,125.4091 74.9038,127.4241 72.4178,127.4241 C69.9328,127.4241 67.9178,125.4091 67.9178,122.9241 L67.9178,122.9241 L67.9178,119.5571 L64.9358,121.1191 C64.2698,121.4681 63.5548,121.6341 62.8518,121.6341 C61.2308,121.6341 59.6658,120.7561 58.8618,119.2211 C57.7078,117.0191 58.5578,114.3001 60.7598,113.1461 L60.7598,113.1461 L63.0458,111.9481 L60.8048,110.6681 C58.6468,109.4351 57.8958,106.6861 59.1288,104.5281 C60.3608,102.3701 63.1098,101.6211 65.2678,102.8521 L65.2678,102.8521 L67.9178,104.3661 L67.9178,101.3141 C67.9178,98.8291 69.9328,96.8141 72.4178,96.8141 Z M90.7801,64.1695 C93.2661,64.1695 95.2801,66.1845 95.2801,68.6695 L95.2801,68.6695 L95.2801,72.0375 L98.2641,70.4745 C100.4651,69.3195 103.1841,70.1715 104.3381,72.3725 C105.4911,74.5735 104.6421,77.2935 102.4401,78.4465 L102.4401,78.4465 L100.1521,79.6445 L102.3951,80.9255 C104.5521,82.1585 105.3031,84.9065 104.0691,87.0645 C103.2391,88.5185 101.7211,89.3335 100.1581,89.3335 C99.4011,89.3335 98.6351,89.1425 97.9301,88.7405 L97.9301,88.7405 L95.2801,87.2275 L95.2801,90.2785 C95.2801,92.7645 93.2661,94.7785 90.7801,94.7785 C88.2951,94.7785 86.2801,92.7645 86.2801,90.2785 L86.2801,90.2785 L86.2801,86.9115 L83.2971,88.4745 C82.6311,88.8235 81.9161,88.9885 81.2131,88.9885 C79.5921,88.9885 78.0271,88.1105 77.2231,86.5755 C76.0691,84.3745 76.9191,81.6545 79.1211,80.5015 L79.1211,80.5015 L81.4071,79.3035 L79.1661,78.0225 C77.0091,76.7895 76.2581,74.0415 77.4911,71.8835 C78.7231,69.7245 81.4691,68.9755 83.6311,70.2075 L83.6311,70.2075 L86.2801,71.7205 L86.2801,68.6695 C86.2801,66.1845 88.2951,64.1695 90.7801,64.1695 Z M67.62,-5.68434189e-14 C88.672,-5.68434189e-14 106.517,13.975 112.379,33.132 C112.935,33.102 113.491,33.083 114.049,33.083 C130.734,33.083 144.308,46.657 144.308,63.342 C144.308,80.027 130.734,93.602 114.049,93.602 C111.564,93.602 109.549,91.587 109.549,89.102 C109.549,86.616 111.564,84.602 114.049,84.602 C125.771,84.602 135.308,75.064 135.308,63.342 C135.308,51.666 125.843,42.164 114.184,42.09 C114.339,43.64 114.421,45.211 114.421,46.801 C114.421,48.118 114.364,49.456 114.254,50.776 C113.97,54.152 113.318,57.497 112.316,60.717 C111.715,62.645 109.938,63.881 108.02,63.881 C107.577,63.881 107.127,63.815 106.682,63.677 C104.309,62.938 102.984,60.416 103.722,58.042 C104.53,55.445 105.057,52.747 105.285,50.022 C105.375,48.952 105.421,47.868 105.421,46.801 C105.421,25.958 88.464,9 67.62,9 C55.158,9 43.654,15.167 36.662,25.142 C42.212,25.527 47.58,27.252 52.314,30.187 C54.425,31.497 55.075,34.27 53.766,36.383 C52.456,38.495 49.683,39.145 47.57,37.835 C43.585,35.365 38.988,34.059 34.272,34.059 C20.337,34.059 9,45.396 9,59.33 C9,73.265 20.337,84.602 34.272,84.602 C36.757,84.602 38.772,86.616 38.772,89.102 C38.772,91.587 36.757,93.602 34.272,93.602 C15.374,93.602 0,78.228 0,59.33 C0,43.427 10.888,30.022 25.601,26.172 C33.443,10.217 49.752,-5.68434189e-14 67.62,-5.68434189e-14 Z M49.9406,54.3643 C52.4256,54.3643 54.4406,56.3793 54.4406,58.8643 L54.4406,58.8643 L54.4406,62.2323 L57.4226,60.6693 C59.6236,59.5153 62.3426,60.3663 63.4976,62.5673 C64.6506,64.7693 63.8006,67.4883 61.5986,68.6423 L61.5986,68.6423 L59.3116,69.8403 L61.5536,71.1203 C63.7126,72.3533 64.4636,75.1023 63.2296,77.2603 C62.3996,78.7143 60.8806,79.5293 59.3186,79.5293 C58.5616,79.5293 57.7956,79.3383 57.0906,78.9363 L57.0906,78.9363 L54.4406,77.4223 L54.4406,80.4743 C54.4406,82.9593 52.4256,84.9743 49.9406,84.9743 C47.4556,84.9743 45.4406,82.9593 45.4406,80.4743 L45.4406,80.4743 L45.4406,77.1063 L42.4576,78.6693 C41.7916,79.0183 41.0766,79.1843 40.3736,79.1843 C38.7526,79.1843 37.1876,78.3063 36.3826,76.7713 C35.2296,74.5703 36.0796,71.8503 38.2816,70.6963 L38.2816,70.6963 L40.5676,69.4983 L38.3266,68.2183 C36.1686,66.9853 35.4176,64.2373 36.6506,62.0783 C37.8826,59.9203 40.6316,59.1713 42.7896,60.4033 L42.7896,60.4033 L45.4406,61.9173 L45.4406,58.8643 C45.4406,56.3793 47.4556,54.3643 49.9406,54.3643 Z" id="Snow_2" fill="#404040"></path>
    </g>
</svg>