<?xml version="1.0" encoding="UTF-8"?>
<svg width="145px" height="132px" viewBox="0 0 145 132" version="1.1" xmlns="http://www.w3.org/2000/svg" xmlns:xlink="http://www.w3.org/1999/xlink">
    <title>Snow_1</title>
    <g id="Page-1" stroke="none" stroke-width="1" fill="none" fill-rule="evenodd">
        <path d="M49.9403,100.8141 C52.4263,100.8141 54.4403,102.8291 54.4403,105.3141 L54.4403,105.3141 L54.4403,108.6821 L57.4233,107.1191 C59.6233,105.9651 62.3433,106.8161 63.4973,109.0171 C64.6503,111.2191 63.8013,113.9381 61.5993,115.0921 L61.5993,115.0921 L59.3113,116.2891 L61.5543,117.5701 C63.7123,118.8031 64.4633,121.5521 63.2293,123.7101 C62.3993,125.1631 60.8813,125.9791 59.3183,125.9791 C58.5613,125.9791 57.7953,125.7881 57.0913,125.3861 L57.0913,125.3861 L54.4403,123.8721 L54.4403,126.9241 C54.4403,129.4091 52.4263,131.4241 49.9403,131.4241 C47.4553,131.4241 45.4403,129.4091 45.4403,126.9241 L45.4403,126.9241 L45.4403,123.5561 L42.4573,125.1191 C41.7913,125.4681 41.0763,125.6341 40.3733,125.6341 C38.7523,125.6341 37.1873,124.7561 36.3833,123.2211 C35.2293,121.0191 36.0793,118.3001 38.2813,117.1461 L38.2813,117.1461 L40.5673,115.9481 L38.3263,114.6681 C36.1683,113.4351 35.4173,110.6861 36.6503,108.5281 C37.8823,106.3701 40.6313,105.6201 42.7893,106.8521 L42.7893,106.8521 L45.4403,108.3671 L45.4403,105.3141 C45.4403,102.8291 47.4553,100.8141 49.9403,100.8141 Z M94.8172,100.8146 C97.3032,100.8146 99.3172,102.8296 99.3172,105.3146 L99.3172,105.3146 L99.3172,108.6826 L102.3012,107.1196 C104.5002,105.9646 107.2222,106.8166 108.3752,109.0176 C109.5282,111.2186 108.6792,113.9386 106.4772,115.0916 L106.4772,115.0916 L104.1892,116.2896 L106.4322,117.5706 C108.5892,118.8036 109.3402,121.5516 108.1062,123.7096 C107.2762,125.1636 105.7582,125.9786 104.1952,125.9786 C103.4382,125.9786 102.6722,125.7876 101.9672,125.3856 L101.9672,125.3856 L99.3172,123.8726 L99.3172,126.9236 C99.3172,129.4096 97.3032,131.4236 94.8172,131.4236 C92.3322,131.4236 90.3172,129.4096 90.3172,126.9236 L90.3172,126.9236 L90.3172,123.5566 L87.3342,125.1196 C86.6682,125.4686 85.9532,125.6336 85.2502,125.6336 C83.6292,125.6336 82.0642,124.7556 81.2602,123.2206 C80.1062,121.0196 80.9562,118.2996 83.1582,117.1466 L83.1582,117.1466 L85.4442,115.9486 L83.2032,114.6676 C81.0462,113.4346 80.2952,110.6866 81.5282,108.5286 C82.7602,106.3696 85.5062,105.6206 87.6682,106.8526 L87.6682,106.8526 L90.3172,108.3656 L90.3172,105.3146 C90.3172,102.8296 92.3322,100.8146 94.8172,100.8146 Z M72.339,73.211 C74.824,73.211 76.839,75.226 76.839,77.711 L76.839,77.711 L76.839,81.079 L79.822,79.516 C82.023,78.361 84.742,79.212 85.897,81.414 C87.05,83.615 86.2,86.335 83.998,87.488 L83.998,87.488 L81.711,88.686 L83.953,89.966 C86.112,91.199 86.863,93.948 85.629,96.106 C84.799,97.56 83.28,98.375 81.718,98.375 C80.961,98.375 80.195,98.184 79.49,97.782 L79.49,97.782 L76.839,96.268 L76.839,99.32 C76.839,101.805 74.824,103.82 72.339,103.82 C69.854,103.82 67.839,101.805 67.839,99.32 L67.839,99.32 L67.839,95.953 L64.857,97.515 C64.191,97.864 63.476,98.03 62.773,98.03 C61.152,98.03 59.587,97.152 58.782,95.617 C57.629,93.416 58.479,90.696 60.681,89.542 L60.681,89.542 L62.967,88.345 L60.726,87.064 C58.568,85.832 57.817,83.083 59.05,80.925 C60.281,78.767 63.03,78.017 65.189,79.249 L65.189,79.249 L67.839,80.763 L67.839,77.711 C67.839,75.226 69.854,73.211 72.339,73.211 Z M67.62,-1.70530257e-13 C88.672,-1.70530257e-13 106.517,13.975 112.379,33.132 C112.935,33.102 113.491,33.083 114.049,33.083 C130.734,33.083 144.308,46.657 144.308,63.342 C144.308,80.027 130.734,93.602 114.049,93.602 C111.564,93.602 109.549,91.587 109.549,89.102 C109.549,86.616 111.564,84.602 114.049,84.602 C125.771,84.602 135.308,75.064 135.308,63.342 C135.308,51.666 125.843,42.164 114.184,42.09 C114.339,43.64 114.421,45.211 114.421,46.801 C114.421,48.118 114.364,49.456 114.254,50.776 C113.97,54.152 113.318,57.497 112.316,60.717 C111.715,62.645 109.938,63.881 108.02,63.881 C107.577,63.881 107.127,63.815 106.682,63.677 C104.309,62.938 102.984,60.416 103.722,58.042 C104.53,55.445 105.057,52.747 105.285,50.022 C105.375,48.952 105.421,47.868 105.421,46.801 C105.421,25.958 88.464,9 67.62,9 C55.158,9 43.654,15.167 36.662,25.142 C42.212,25.527 47.58,27.252 52.314,30.187 C54.425,31.497 55.075,34.27 53.766,36.383 C52.456,38.495 49.683,39.145 47.57,37.835 C43.585,35.365 38.988,34.059 34.272,34.059 C20.337,34.059 9,45.396 9,59.33 C9,73.265 20.337,84.602 34.272,84.602 C36.757,84.602 38.772,86.616 38.772,89.102 C38.772,91.587 36.757,93.602 34.272,93.602 C15.374,93.602 0,78.228 0,59.33 C0,43.427 10.888,30.022 25.601,26.172 C33.443,10.217 49.752,-1.70530257e-13 67.62,-1.70530257e-13 Z" id="Snow_1" fill="#404040"></path>
    </g>
</svg>