<?xml version="1.0" encoding="UTF-8"?>
<svg width="162px" height="158px" viewBox="0 0 162 158" version="1.1" xmlns="http://www.w3.org/2000/svg" xmlns:xlink="http://www.w3.org/1999/xlink">
    <title>Snow_2_Sun</title>
    <g id="Page-1" stroke="none" stroke-width="1" fill="none" fill-rule="evenodd">
        <path d="M72.4178,126.8081 C74.9038,126.8081 76.9178,128.8231 76.9178,131.3081 L76.9178,131.3081 L76.9178,134.6761 L79.9018,133.1131 C82.1018,131.9581 84.8218,132.8111 85.9758,135.0111 C87.1288,137.2131 86.2798,139.9321 84.0778,141.0861 L84.0778,141.0861 L81.7898,142.2831 L84.0328,143.5641 C86.1908,144.7971 86.9418,147.5461 85.7078,149.7041 C84.8778,151.1571 83.3598,151.9731 81.7968,151.9731 C81.0398,151.9731 80.2738,151.7821 79.5698,151.3801 L79.5698,151.3801 L76.9178,149.8651 L76.9178,152.9181 C76.9178,155.4031 74.9038,157.4181 72.4178,157.4181 C69.9328,157.4181 67.9178,155.4031 67.9178,152.9181 L67.9178,152.9181 L67.9178,149.5511 L64.9358,151.1131 C64.2698,151.4621 63.5548,151.6281 62.8518,151.6281 C61.2308,151.6281 59.6658,150.7501 58.8618,149.2151 C57.7078,147.0131 58.5578,144.2941 60.7598,143.1401 L60.7598,143.1401 L63.0458,141.9421 L60.8048,140.6621 C58.6468,139.4291 57.8958,136.6801 59.1288,134.5221 C60.3608,132.3641 63.1088,131.6151 65.2678,132.8461 L65.2678,132.8461 L67.9178,134.3601 L67.9178,131.3081 C67.9178,128.8231 69.9328,126.8081 72.4178,126.8081 Z M90.7801,94.163 C93.2661,94.163 95.2801,96.178 95.2801,98.663 L95.2801,98.663 L95.2801,102.031 L98.2631,100.468 C100.4641,99.314 103.1831,100.165 104.3371,102.366 C105.4901,104.568 104.6411,107.287 102.4391,108.441 L102.4391,108.441 L100.1511,109.638 L102.3951,110.919 C104.5521,112.152 105.3031,114.901 104.0691,117.059 C103.2391,118.513 101.7211,119.328 100.1581,119.328 C99.4011,119.328 98.6351,119.137 97.9301,118.735 L97.9301,118.735 L95.2801,117.221 L95.2801,120.273 C95.2801,122.758 93.2661,124.773 90.7801,124.773 C88.2951,124.773 86.2801,122.758 86.2801,120.273 L86.2801,120.273 L86.2801,116.905 L83.2971,118.468 C82.6311,118.817 81.9161,118.983 81.2131,118.983 C79.5921,118.983 78.0271,118.105 77.2231,116.57 C76.0691,114.368 76.9191,111.649 79.1211,110.495 L79.1211,110.495 L81.4071,109.298 L79.1661,108.017 C77.0091,106.784 76.2581,104.035 77.4911,101.877 C78.7231,99.719 81.4691,98.97 83.6311,100.201 L83.6311,100.201 L86.2801,101.715 L86.2801,98.663 C86.2801,96.178 88.2951,94.163 90.7801,94.163 Z M110.278,0 C112.764,0 114.778,2.014 114.778,4.5 L114.778,4.5 L114.778,19.569 C119.455,20.215 123.818,21.853 127.65,24.264 L127.65,24.264 L137.343,12.713 C138.941,10.809 141.78,10.561 143.683,12.158 C145.587,13.756 145.835,16.594 144.237,18.498 L144.237,18.498 L134.544,30.05 C137.607,33.437 139.966,37.468 141.405,41.91 L141.405,41.91 L156.244,39.293 C158.698,38.864 161.027,40.496 161.457,42.944 C161.889,45.391 160.254,47.725 157.807,48.157 L157.807,48.157 L142.964,50.774 C142.978,51.171 142.994,51.567 142.994,51.968 C142.994,56.257 142.169,60.42 140.603,64.28 L140.603,64.28 L153.637,71.805 C155.789,73.048 156.527,75.8 155.284,77.952 C154.45,79.395 152.938,80.203 151.383,80.203 C150.619,80.203 149.846,80.008 149.137,79.599 L149.137,79.599 L136.087,72.065 C136.006,72.17 135.927,72.275 135.844,72.379 C141.078,77.821 144.308,85.206 144.308,93.336 C144.308,110.021 130.734,123.596 114.049,123.596 C111.564,123.596 109.549,121.581 109.549,119.096 C109.549,116.61 111.564,114.596 114.049,114.596 C125.771,114.596 135.308,105.058 135.308,93.336 C135.308,81.66 125.843,72.158 114.184,72.084 C114.339,73.634 114.421,75.205 114.421,76.795 C114.421,78.112 114.364,79.45 114.254,80.77 C113.97,84.146 113.318,87.491 112.316,90.711 C111.715,92.639 109.938,93.875 108.02,93.875 C107.577,93.875 107.127,93.809 106.682,93.671 C104.309,92.932 102.984,90.41 103.722,88.036 C104.53,85.439 105.057,82.741 105.285,80.016 C105.375,78.946 105.421,77.862 105.421,76.795 C105.421,55.951 88.464,38.994 67.62,38.994 C55.158,38.994 43.654,45.161 36.662,55.136 C42.212,55.521 47.58,57.246 52.314,60.181 C54.425,61.491 55.075,64.264 53.766,66.377 C52.456,68.489 49.683,69.139 47.569,67.829 C43.585,65.359 38.987,64.053 34.272,64.053 C20.337,64.053 9,75.389 9,89.324 C9,103.259 20.337,114.596 34.272,114.596 C36.757,114.596 38.772,116.61 38.772,119.096 C38.772,121.581 36.757,123.596 34.272,123.596 C15.374,123.596 0,108.222 0,89.324 C0,73.421 10.888,60.016 25.601,56.166 C33.443,40.211 49.752,29.994 67.62,29.994 C73.282,29.994 78.714,31.007 83.742,32.858 C84.451,31.876 85.207,30.938 86.012,30.05 L86.012,30.05 L76.319,18.498 C74.722,16.594 74.97,13.756 76.874,12.158 C78.777,10.561 81.614,10.808 83.214,12.713 L83.214,12.713 L92.914,24.273 C96.795,21.841 101.17,20.212 105.778,19.569 L105.778,19.569 L105.778,4.5 C105.778,2.014 107.793,0 110.278,0 Z M49.9406,84.3583 C52.4256,84.3583 54.4406,86.3733 54.4406,88.8583 L54.4406,88.8583 L54.4406,92.2263 L57.4226,90.6633 C59.6226,89.5093 62.3426,90.3603 63.4976,92.5613 C64.6506,94.7633 63.8006,97.4823 61.5986,98.6363 L61.5986,98.6363 L59.3116,99.8343 L61.5536,101.1143 C63.7126,102.3473 64.4636,105.0963 63.2296,107.2543 C62.3996,108.7083 60.8806,109.5233 59.3186,109.5233 C58.5616,109.5233 57.7956,109.3323 57.0906,108.9303 L57.0906,108.9303 L54.4406,107.4163 L54.4406,110.4683 C54.4406,112.9533 52.4256,114.9683 49.9406,114.9683 C47.4556,114.9683 45.4406,112.9533 45.4406,110.4683 L45.4406,110.4683 L45.4406,107.1003 L42.4576,108.6633 C41.7916,109.0123 41.0766,109.1783 40.3736,109.1783 C38.7526,109.1783 37.1876,108.3003 36.3826,106.7653 C35.2296,104.5643 36.0796,101.8443 38.2816,100.6903 L38.2816,100.6903 L40.5676,99.4923 L38.3266,98.2123 C36.1686,96.9793 35.4176,94.2313 36.6506,92.0723 C37.8816,89.9143 40.6306,89.1653 42.7896,90.3973 L42.7896,90.3973 L45.4406,91.9113 L45.4406,88.8583 C45.4406,86.3733 47.4556,84.3583 49.9406,84.3583 Z M110.278,28.252 C103.158,28.252 96.473,31.48 92.007,36.868 C101.655,42.783 109.003,52.095 112.379,63.126 C112.935,63.096 113.491,63.077 114.049,63.077 C119.368,63.077 124.369,64.462 128.718,66.883 C129.492,65.929 130.185,64.921 130.795,63.872 L130.795,63.872 L130.817,63.826 C130.823,63.813 130.833,63.804 130.841,63.792 C132.895,60.233 133.994,56.185 133.994,51.968 C133.994,38.89 123.356,28.252 110.278,28.252 Z" id="Snow_2_Sun" fill="#404040"></path>
    </g>
</svg>