<?xml version="1.0" encoding="UTF-8"?>
<svg width="152px" height="152px" viewBox="0 0 152 152" version="1.1" xmlns="http://www.w3.org/2000/svg" xmlns:xlink="http://www.w3.org/1999/xlink">
    <title>Snow_1_Moon</title>
    <g id="Page-1" stroke="none" stroke-width="1" fill="none" fill-rule="evenodd">
        <path d="M50.5172,121.1054 C53.0022,121.1054 55.0172,123.1194 55.0172,125.6054 L55.0172,125.6054 L54.7622,127.2864 C54.5942,128.3954 55.8782,129.1304 56.7492,128.4234 L56.7492,128.4234 L57.8772,127.5094 C57.9592,127.4434 58.0482,127.3834 58.1422,127.3384 C60.3162,126.2924 62.9442,127.1534 64.0742,129.3084 C65.2002,131.4574 64.4172,134.1024 62.3282,135.2984 C62.2292,135.3554 62.1202,135.3974 62.0092,135.4264 L62.0092,135.4264 L61.9582,135.4404 C60.7502,135.7634 60.7412,137.4754 61.9472,137.8094 C62.0682,137.8434 62.1872,137.8914 62.2942,137.9584 C64.3252,139.2344 65.0072,141.8974 63.8062,144.0004 C62.9762,145.4534 61.4572,146.2694 59.8952,146.2694 C59.1912,146.2694 58.4802,146.1044 57.8182,145.7584 C57.7182,145.7064 57.6242,145.6364 57.5412,145.5594 L57.5412,145.5594 L56.8572,144.9314 C55.9952,144.1384 54.6182,144.8874 54.8162,146.0424 L54.8162,146.0424 L54.9932,147.0754 C55.0092,147.1674 55.0182,147.2614 55.0152,147.3544 C54.9402,149.7744 52.9552,151.7134 50.5172,151.7134 C48.0802,151.7134 46.0972,149.7784 46.0192,147.3604 C46.0162,147.2634 46.0252,147.1654 46.0432,147.0694 L46.0432,147.0694 L46.3132,145.5804 C46.5152,144.4734 45.2462,143.7014 44.3552,144.3894 L44.3552,144.3894 L43.0342,145.4094 C42.3682,145.7584 41.6532,145.9234 40.9502,145.9234 C39.3292,145.9234 37.7652,145.0454 36.9602,143.5104 C35.8342,141.3614 36.6172,138.7184 38.7042,137.5214 C38.8052,137.4634 38.9152,137.4214 39.0272,137.3924 L39.0272,137.3924 L39.0702,137.3804 C40.2782,137.0634 40.2952,135.3534 39.0932,135.0124 L39.0932,135.0124 L39.0822,135.0094 C38.9642,134.9754 38.8472,134.9274 38.7432,134.8624 C36.7092,133.5874 36.0252,130.9224 37.2282,128.8184 C38.4312,126.7114 41.0812,125.9464 43.2152,127.0604 C43.3152,127.1124 43.4092,127.1824 43.4932,127.2584 L43.4932,127.2584 L44.1822,127.8844 C45.0462,128.6704 46.4162,127.9194 46.2182,126.7674 L46.2182,126.7674 L46.0412,125.7444 C46.0242,125.6514 46.0162,125.5574 46.0192,125.4634 C46.0942,123.0444 48.0782,121.1054 50.5172,121.1054 Z M94.8218,121.1054 C97.3068,121.1054 99.3218,123.1194 99.3218,125.6054 L99.3218,125.6054 L99.0668,127.2864 C98.8988,128.3954 100.1828,129.1304 101.0538,128.4234 L101.0538,128.4234 L102.1828,127.5094 C102.2638,127.4434 102.3528,127.3834 102.4468,127.3384 C104.6208,126.2924 107.2488,127.1534 108.3788,129.3084 C109.5048,131.4574 108.7218,134.1024 106.6328,135.2984 C106.5348,135.3554 106.4248,135.3974 106.3148,135.4264 L106.3148,135.4264 L106.2638,135.4404 C105.0548,135.7634 105.0468,137.4754 106.2518,137.8094 C106.3728,137.8434 106.4928,137.8914 106.5988,137.9584 C108.6298,139.2344 109.3128,141.8974 108.1108,144.0004 C107.2808,145.4534 105.7618,146.2694 104.1998,146.2694 C103.4958,146.2694 102.7848,146.1044 102.1228,145.7584 C102.0228,145.7064 101.9298,145.6364 101.8458,145.5594 L101.8458,145.5594 L101.1618,144.9314 C100.3008,144.1384 98.9238,144.8874 99.1208,146.0424 L99.1208,146.0424 L99.2978,147.0754 C99.3138,147.1674 99.3228,147.2614 99.3198,147.3544 C99.2448,149.7744 97.2598,151.7134 94.8218,151.7134 C92.3858,151.7134 90.4018,149.7784 90.3248,147.3604 C90.3208,147.2634 90.3298,147.1654 90.3478,147.0694 L90.3478,147.0694 L90.6178,145.5804 C90.8208,144.4734 89.5508,143.7014 88.6598,144.3894 L88.6598,144.3894 L87.3388,145.4094 C86.6728,145.7584 85.9578,145.9234 85.2548,145.9234 C83.6338,145.9234 82.0698,145.0454 81.2648,143.5104 C80.1388,141.3614 80.9218,138.7184 83.0088,137.5214 C83.1098,137.4634 83.2208,137.4214 83.3318,137.3924 L83.3318,137.3924 L83.3748,137.3804 C84.5838,137.0634 84.6008,135.3534 83.3978,135.0124 L83.3978,135.0124 L83.3868,135.0094 C83.2688,134.9754 83.1518,134.9274 83.0478,134.8624 C81.0138,133.5874 80.3298,130.9224 81.5328,128.8184 C82.7358,126.7114 85.3858,125.9464 87.5198,127.0604 C87.6198,127.1124 87.7138,127.1824 87.7978,127.2584 L87.7978,127.2584 L88.4868,127.8844 C89.3508,128.6704 90.7208,127.9194 90.5228,126.7674 L90.5228,126.7674 L90.3458,125.7444 C90.3288,125.6514 90.3218,125.5574 90.3238,125.4634 C90.3988,123.0444 92.3838,121.1054 94.8218,121.1054 Z M72.3391,92.836 C74.8241,92.836 76.8391,94.851 76.8391,97.336 L76.8391,97.336 L76.5841,99.017 C76.4161,100.126 77.7001,100.861 78.5711,100.155 L78.5711,100.155 L79.6991,99.24 C79.7801,99.174 79.8691,99.115 79.9641,99.069 C82.1391,98.023 84.7671,98.884 85.8971,101.039 C87.0231,103.189 86.2381,105.833 84.1501,107.03 C84.0511,107.086 83.9411,107.128 83.8311,107.158 L83.8311,107.158 L83.7801,107.171 C82.5711,107.494 82.5641,109.207 83.7701,109.541 C83.8901,109.574 84.0091,109.623 84.1151,109.689 C86.1481,110.965 86.8291,113.628 85.6281,115.731 C84.7981,117.185 83.2791,118 81.7171,118 C81.0141,118 80.3021,117.835 79.6411,117.489 C79.5391,117.437 79.4461,117.368 79.3621,117.291 L79.3621,117.291 L78.6791,116.662 C77.8171,115.869 76.4401,116.619 76.6381,117.773 L76.6381,117.773 L76.8151,118.807 C76.8301,118.898 76.8391,118.993 76.8361,119.085 C76.7621,121.505 74.7761,123.445 72.3391,123.445 C69.9021,123.445 67.9181,121.509 67.8411,119.092 C67.8381,118.995 67.8481,118.896 67.8641,118.801 L67.8641,118.801 L68.1361,117.312 C68.3371,116.205 67.0671,115.432 66.1771,116.12 L66.1771,116.12 L64.8571,117.14 C64.1911,117.489 63.4761,117.655 62.7731,117.655 C61.1511,117.655 59.5871,116.777 58.7821,115.242 C57.6561,113.093 58.4391,110.45 60.5251,109.252 C60.6261,109.194 60.7371,109.152 60.8501,109.123 L60.8501,109.123 L60.8921,109.112 C62.1011,108.794 62.1171,107.085 60.9151,106.743 L60.9151,106.743 L60.9031,106.74 C60.7851,106.707 60.6691,106.659 60.5651,106.593 C58.5301,105.318 57.8471,102.653 59.0501,100.55 C60.2521,98.442 62.9021,97.678 65.0361,98.792 C65.1381,98.844 65.2311,98.913 65.3151,98.989 L65.3151,98.989 L66.0031,99.615 C66.8671,100.402 68.2381,99.65 68.0391,98.499 L68.0391,98.499 L67.8621,97.475 C67.8471,97.383 67.8381,97.288 67.8411,97.195 C67.9151,94.775 69.9001,92.836 72.3391,92.836 Z M109.564,-5.68434189e-14 C110.876,-5.68434189e-14 112.23,0.063 113.588,0.188 C115.016,0.32 116.296,1.125 117.033,2.355 C117.771,3.585 117.878,5.093 117.321,6.415 C116.269,8.917 115.735,11.583 115.735,14.339 C115.735,25.588 124.886,34.74 136.134,34.74 C139.066,34.74 141.887,34.132 144.52,32.934 C145.821,32.341 147.326,32.402 148.575,33.099 C149.824,33.795 150.668,35.044 150.848,36.462 C151.058,38.115 151.164,39.843 151.164,41.6 C151.164,51.81 147.526,61.404 140.869,68.983 C143.061,73.169 144.308,77.924 144.308,82.967 C144.308,99.652 130.734,113.227 114.048,113.227 C111.563,113.227 109.548,111.212 109.548,108.727 C109.548,106.241 111.563,104.227 114.048,104.227 C125.771,104.227 135.308,94.689 135.308,82.967 C135.308,71.291 125.843,61.789 114.184,61.715 C114.339,63.265 114.421,64.836 114.421,66.426 C114.421,67.743 114.364,69.081 114.254,70.401 C113.969,73.782 113.317,77.126 112.316,80.342 C111.715,82.27 109.938,83.506 108.02,83.506 C107.577,83.506 107.127,83.44 106.682,83.302 C104.309,82.563 102.984,80.041 103.722,77.667 C104.529,75.074 105.055,72.375 105.285,69.646 C105.375,68.577 105.421,67.493 105.421,66.426 C105.421,45.583 88.464,28.625 67.62,28.625 C55.159,28.625 43.655,34.792 36.662,44.767 C42.212,45.152 47.579,46.876 52.313,49.812 C54.425,51.122 55.074,53.896 53.765,56.008 C52.455,58.12 49.679,58.77 47.568,57.46 C43.585,54.99 38.987,53.684 34.272,53.684 C20.337,53.684 9,65.021 9,78.955 C9,92.89 20.337,104.227 34.272,104.227 C36.757,104.227 38.772,106.241 38.772,108.727 C38.772,111.212 36.757,113.227 34.272,113.227 C15.374,113.227 -1.42108547e-14,97.853 -1.42108547e-14,78.955 C-1.42108547e-14,63.053 10.888,49.648 25.6,45.797 C33.443,29.843 49.751,19.625 67.62,19.625 C69.776,19.625 71.893,19.785 73.972,20.068 C81.488,7.613 94.831,-5.68434189e-14 109.564,-5.68434189e-14 Z M107.199,9.083 C97.569,9.768 88.898,14.627 83.275,22.328 C97.161,27.272 108.045,38.595 112.379,52.757 C112.935,52.727 113.491,52.708 114.048,52.708 C122.361,52.708 129.9,56.079 135.374,61.523 C139.472,56.244 141.821,49.886 142.129,43.129 C140.174,43.535 138.172,43.74 136.134,43.74 C119.923,43.74 106.735,30.551 106.735,14.339 C106.735,12.56 106.89,10.804 107.199,9.083 Z" id="Snow_1_Moon" fill="#404040"></path>
    </g>
</svg>