<?xml version="1.0" encoding="UTF-8"?>
<svg width="152px" height="148px" viewBox="0 0 152 148" version="1.1" xmlns="http://www.w3.org/2000/svg" xmlns:xlink="http://www.w3.org/1999/xlink">
    <title>Snow_2_Moon</title>
    <g id="Page-1" stroke="none" stroke-width="1" fill="none" fill-rule="evenodd">
        <path d="M72.4178,116.4391 C74.9038,116.4391 76.9178,118.4541 76.9178,120.9391 L76.9178,120.9391 L76.9178,124.3071 L79.9018,122.7441 C82.1028,121.5891 84.8218,122.4421 85.9758,124.6421 C87.1288,126.8441 86.2798,129.5631 84.0778,130.7171 L84.0778,130.7171 L81.7898,131.9141 L84.0328,133.1951 C86.1898,134.4281 86.9408,137.1771 85.7068,139.3351 C84.8768,140.7891 83.3588,141.6041 81.7958,141.6041 C81.0388,141.6041 80.2728,141.4131 79.5678,141.0111 L79.5678,141.0111 L76.9178,139.4971 L76.9178,142.5491 C76.9178,145.0341 74.9038,147.0491 72.4178,147.0491 C69.9328,147.0491 67.9178,145.0341 67.9178,142.5491 L67.9178,142.5491 L67.9178,139.1821 L64.9358,140.7441 C64.2698,141.0931 63.5548,141.2591 62.8518,141.2591 C61.2308,141.2591 59.6658,140.3811 58.8618,138.8461 C57.7078,136.6441 58.5578,133.9251 60.7598,132.7711 L60.7598,132.7711 L63.0458,131.5741 L60.8038,130.2931 C58.6468,129.0601 57.8958,126.3111 59.1288,124.1531 C60.3608,121.9951 63.1068,121.2461 65.2688,122.4771 L65.2688,122.4771 L67.9178,123.9911 L67.9178,120.9391 C67.9178,118.4541 69.9328,116.4391 72.4178,116.4391 Z M90.7801,83.794 C93.2661,83.794 95.2801,85.809 95.2801,88.294 L95.2801,88.294 L95.2801,91.662 L98.2631,90.099 C100.4641,88.945 103.1831,89.796 104.3371,91.997 C105.4901,94.199 104.6411,96.918 102.4391,98.072 L102.4391,98.072 L100.1511,99.269 L102.3941,100.55 C104.5521,101.783 105.3031,104.532 104.0691,106.69 C103.2391,108.143 101.7211,108.959 100.1581,108.959 C99.4011,108.959 98.6351,108.768 97.9311,108.366 L97.9311,108.366 L95.2801,106.852 L95.2801,109.904 C95.2801,112.389 93.2661,114.404 90.7801,114.404 C88.2951,114.404 86.2801,112.389 86.2801,109.904 L86.2801,109.904 L86.2801,106.536 L83.2971,108.099 C82.6311,108.448 81.9161,108.614 81.2131,108.614 C79.5921,108.614 78.0271,107.736 77.2231,106.201 C76.0691,103.999 76.9191,101.28 79.1211,100.126 L79.1211,100.126 L81.4071,98.928 L79.1661,97.648 C77.0081,96.415 76.2571,93.666 77.4901,91.508 C78.7221,89.351 81.4701,88.601 83.6291,89.832 L83.6291,89.832 L86.2801,91.347 L86.2801,88.294 C86.2801,85.809 88.2951,83.794 90.7801,83.794 Z M109.564,-5.68434189e-14 C110.876,-5.68434189e-14 112.23,0.063 113.588,0.188 C115.016,0.32 116.296,1.125 117.033,2.355 C117.771,3.585 117.878,5.093 117.321,6.415 C116.269,8.917 115.735,11.583 115.735,14.339 C115.735,25.588 124.886,34.739 136.134,34.739 C139.066,34.739 141.887,34.132 144.52,32.934 C145.821,32.341 147.327,32.403 148.575,33.099 C149.824,33.795 150.668,35.044 150.848,36.462 C151.058,38.115 151.164,39.843 151.164,41.6 C151.164,51.81 147.526,61.404 140.869,68.983 C143.061,73.169 144.308,77.924 144.308,82.967 C144.308,99.652 130.734,113.227 114.048,113.227 C111.563,113.227 109.548,111.212 109.548,108.727 C109.548,106.241 111.563,104.227 114.048,104.227 C125.771,104.227 135.308,94.689 135.308,82.967 C135.308,71.291 125.843,61.789 114.184,61.715 C114.339,63.265 114.421,64.836 114.421,66.426 C114.421,67.743 114.364,69.081 114.254,70.401 C113.969,73.782 113.317,77.126 112.316,80.342 C111.715,82.27 109.938,83.506 108.02,83.506 C107.577,83.506 107.127,83.44 106.682,83.302 C104.309,82.563 102.984,80.041 103.722,77.667 C104.529,75.074 105.055,72.375 105.285,69.646 C105.375,68.577 105.421,67.493 105.421,66.426 C105.421,45.583 88.464,28.625 67.62,28.625 C55.159,28.625 43.655,34.792 36.662,44.767 C42.212,45.152 47.579,46.876 52.313,49.812 C54.425,51.122 55.074,53.896 53.765,56.008 C52.455,58.12 49.679,58.77 47.568,57.46 C43.585,54.99 38.987,53.684 34.272,53.684 C20.337,53.684 9,65.021 9,78.955 C9,92.89 20.337,104.227 34.272,104.227 C36.757,104.227 38.772,106.241 38.772,108.727 C38.772,111.212 36.757,113.227 34.272,113.227 C15.374,113.227 -1.42108547e-14,97.853 -1.42108547e-14,78.955 C-1.42108547e-14,63.053 10.888,49.648 25.6,45.797 C33.443,29.843 49.751,19.625 67.62,19.625 C69.776,19.625 71.894,19.785 73.972,20.068 C81.488,7.613 94.831,-5.68434189e-14 109.564,-5.68434189e-14 Z M49.9405,73.9893 C52.4255,73.9893 54.4405,76.0043 54.4405,78.4893 L54.4405,78.4893 L54.4405,81.8573 L57.4225,80.2943 C59.6235,79.1403 62.3425,79.9913 63.4975,82.1923 C64.6505,84.3943 63.8005,87.1133 61.5985,88.2673 L61.5985,88.2673 L59.3115,89.4653 L61.5535,90.7453 C63.7125,91.9783 64.4635,94.7273 63.2295,96.8853 C62.3995,98.3393 60.8805,99.1543 59.3185,99.1543 C58.5615,99.1543 57.7955,98.9633 57.0905,98.5613 L57.0905,98.5613 L54.4405,97.0473 L54.4405,100.0993 C54.4405,102.5843 52.4255,104.5993 49.9405,104.5993 C47.4555,104.5993 45.4405,102.5843 45.4405,100.0993 L45.4405,100.0993 L45.4405,96.7313 L42.4575,98.2943 C41.7915,98.6433 41.0765,98.8093 40.3735,98.8093 C38.7525,98.8093 37.1875,97.9313 36.3825,96.3963 C35.2295,94.1953 36.0795,91.4753 38.2815,90.3213 L38.2815,90.3213 L40.5675,89.1233 L38.3265,87.8433 C36.1685,86.6103 35.4175,83.8623 36.6505,81.7033 C37.8825,79.5453 40.6305,78.7963 42.7895,80.0283 L42.7895,80.0283 L45.4405,81.5423 L45.4405,78.4893 C45.4405,76.0043 47.4555,73.9893 49.9405,73.9893 Z M107.199,9.083 C97.569,9.768 88.897,14.627 83.275,22.328 C97.161,27.272 108.046,38.595 112.379,52.757 C112.935,52.727 113.491,52.708 114.048,52.708 C122.361,52.708 129.9,56.079 135.374,61.523 C139.472,56.244 141.821,49.886 142.129,43.128 C140.175,43.535 138.172,43.739 136.134,43.739 C119.923,43.739 106.735,30.55 106.735,14.339 C106.735,12.56 106.89,10.804 107.199,9.083 Z" id="Snow_2_Moon" fill="#404040"></path>
    </g>
</svg>