<?xml version="1.0" encoding="UTF-8"?>
<svg width="162px" height="162px" viewBox="0 0 162 162" version="1.1" xmlns="http://www.w3.org/2000/svg" xmlns:xlink="http://www.w3.org/1999/xlink">
    <title>Sun</title>
    <g id="Page-1" stroke="none" stroke-width="1" fill="none" fill-rule="evenodd">
        <path d="M81.1404,130.459 C83.6254,130.459 85.6404,132.474 85.6404,134.959 L85.6404,157.033 C85.6404,159.518 83.6254,161.533 81.1404,161.533 C78.6554,161.533 76.6404,159.518 76.6404,157.033 L76.6404,134.959 C76.6404,132.474 78.6554,130.459 81.1404,130.459 Z M45.8923,116.1683 C47.6503,117.9253 47.6503,120.7743 45.8923,122.5323 L30.2843,138.1413 C29.4063,139.0203 28.2533,139.4593 27.1023,139.4593 C25.9513,139.4593 24.7983,139.0203 23.9203,138.1413 C22.1633,136.3843 22.1633,133.5353 23.9203,131.7773 L39.5293,116.1683 C41.2853,114.4113 44.1363,114.4113 45.8923,116.1683 Z M122.5318,115.6399 L138.1408,131.2489 C139.8978,133.0059 139.8978,135.8559 138.1408,137.6129 C137.2628,138.4919 136.1098,138.9309 134.9588,138.9309 C133.8078,138.9309 132.6548,138.4919 131.7768,137.6129 L116.1688,122.0049 C114.4108,120.2469 114.4108,117.3979 116.1688,115.6399 C117.9248,113.8839 120.7758,113.8839 122.5318,115.6399 Z M80.7664,38.4983 C104.0734,38.4983 123.0354,57.4593 123.0354,80.7663 C123.0354,104.0733 104.0734,123.0343 80.7664,123.0343 C57.4594,123.0343 38.4984,104.0733 38.4984,80.7663 C38.4984,57.4593 57.4594,38.4983 80.7664,38.4983 Z M80.7664,47.4983 C62.4224,47.4983 47.4984,62.4223 47.4984,80.7663 C47.4984,99.1103 62.4224,114.0343 80.7664,114.0343 C99.1114,114.0343 114.0354,99.1103 114.0354,80.7663 C114.0354,62.4223 99.1114,47.4983 80.7664,47.4983 Z M26.574,76.6399 C29.059,76.6399 31.074,78.6549 31.074,81.1399 C31.074,83.6249 29.059,85.6399 26.574,85.6399 L4.5,85.6399 C2.014,85.6399 5.68434189e-14,83.6249 5.68434189e-14,81.1399 C5.68434189e-14,78.6549 2.014,76.6399 4.5,76.6399 L26.574,76.6399 Z M161.5324,75.8929 L161.5324,84.8929 L130.459,84.8929 L130.459,75.8929 L161.5324,75.8929 Z M29.7554,23.9192 L45.3644,39.5282 C47.1214,41.2852 47.1214,44.1352 45.3644,45.8922 C44.4864,46.7712 43.3334,47.2102 42.1824,47.2102 C41.0314,47.2102 39.8784,46.7712 39.0004,45.8922 L23.3924,30.2842 C21.6344,28.5262 21.6344,25.6772 23.3924,23.9192 C25.1484,22.1632 27.9994,22.1632 29.7554,23.9192 Z M137.613,23.3914 C139.371,25.1494 139.371,27.9984 137.613,29.7564 L122.005,45.3644 C121.127,46.2434 119.974,46.6824 118.823,46.6824 C117.672,46.6824 116.519,46.2434 115.641,45.3644 C113.884,43.6074 113.884,40.7574 115.641,39.0004 L131.25,23.3914 C133.006,21.6354 135.857,21.6354 137.613,23.3914 Z M80.3933,0 C82.8783,0 84.8933,2.014 84.8933,4.5 L84.8933,26.574 C84.8933,29.059 82.8783,31.074 80.3933,31.074 C77.9083,31.074 75.8933,29.059 75.8933,26.574 L75.8933,4.5 C75.8933,2.014 77.9083,0 80.3933,0 Z" id="Sun" fill="#404040"></path>
    </g>
</svg>