<?xml version="1.0" encoding="UTF-8"?>
<svg width="152px" height="152px" viewBox="0 0 152 152" version="1.1" xmlns="http://www.w3.org/2000/svg" xmlns:xlink="http://www.w3.org/1999/xlink">
    <title>Thunder_Moon</title>
    <g id="Page-1" stroke="none" stroke-width="1" fill="none" fill-rule="evenodd">
        <path d="M63.4744,79.8972 L89.8784,79.9052 C91.4354,79.9062 92.8834,80.7112 93.7024,82.0352 C94.5224,83.3602 94.5994,85.0132 93.9064,86.4082 L93.9064,86.4082 L88.3154,97.6562 L97.3484,96.9812 C99.1094,96.8442 100.7774,97.7572 101.6274,99.3012 C102.4754,100.8442 102.3454,102.7422 101.2934,104.1562 L101.2934,104.1562 L67.6524,149.3512 C66.7834,150.5192 65.4314,151.1642 64.0414,151.1642 C63.4664,151.1642 62.8834,151.0532 62.3254,150.8232 C60.4224,150.0372 59.2954,148.0602 59.5894,146.0212 L59.5894,146.0212 L63.4684,119.1312 L50.0414,119.4302 C48.4924,119.4412 47.0514,118.7082 46.1964,117.4272 C45.3424,116.1462 45.2024,114.5162 45.8264,113.1082 L45.8264,113.1082 L59.3594,82.5732 C60.0814,80.9462 61.6934,79.8972 63.4734,79.8972 L63.4734,79.8972 L63.4744,79.8972 Z M66.4014,88.8982 L56.9264,110.2742 L68.5804,110.0142 C68.6134,110.0132 68.6474,110.0132 68.6804,110.0132 C69.9674,110.0132 71.1944,110.5642 72.0494,111.5292 C72.9274,112.5192 73.3234,113.8462 73.1354,115.1562 L73.1354,115.1562 L71.0314,129.7392 L88.1874,106.6902 L81.1014,107.2192 C79.4814,107.3452 77.9344,106.5852 77.0324,105.2432 C76.1304,103.9012 76.0164,102.1772 76.7374,100.7292 L76.7374,100.7292 L82.6164,88.9032 L66.4014,88.8982 Z M109.564,0 C110.876,0 112.23,0.063 113.588,0.188 C115.016,0.32 116.296,1.125 117.033,2.355 C117.771,3.585 117.878,5.093 117.321,6.415 C116.269,8.917 115.735,11.583 115.735,14.339 C115.735,25.588 124.886,34.74 136.134,34.74 C139.066,34.74 141.887,34.132 144.52,32.934 C145.821,32.342 147.326,32.402 148.575,33.099 C149.824,33.795 150.668,35.044 150.848,36.462 C151.058,38.115 151.164,39.843 151.164,41.6 C151.164,51.81 147.526,61.404 140.869,68.983 C143.061,73.169 144.308,77.924 144.308,82.967 C144.308,99.652 130.734,113.227 114.048,113.227 C111.563,113.227 109.548,111.212 109.548,108.727 C109.548,106.241 111.563,104.227 114.048,104.227 C125.771,104.227 135.308,94.689 135.308,82.967 C135.308,71.291 125.843,61.789 114.184,61.715 C114.339,63.265 114.421,64.836 114.421,66.426 C114.421,67.743 114.364,69.08 114.254,70.401 C113.969,73.782 113.317,77.126 112.316,80.342 C111.715,82.27 109.938,83.506 108.02,83.506 C107.577,83.506 107.127,83.44 106.682,83.302 C104.309,82.563 102.984,80.041 103.722,77.667 C104.529,75.074 105.055,72.375 105.285,69.646 C105.375,68.577 105.421,67.493 105.421,66.426 C105.421,45.583 88.464,28.625 67.62,28.625 C55.159,28.625 43.655,34.792 36.662,44.767 C42.212,45.152 47.579,46.876 52.313,49.812 C54.425,51.122 55.074,53.896 53.765,56.008 C52.455,58.12 49.679,58.77 47.568,57.46 C43.585,54.99 38.987,53.684 34.272,53.684 C20.337,53.684 9,65.021 9,78.955 C9,92.89 20.337,104.227 34.272,104.227 C36.757,104.227 38.772,106.241 38.772,108.727 C38.772,111.212 36.757,113.227 34.272,113.227 C15.374,113.227 -1.42108547e-14,97.853 -1.42108547e-14,78.955 C-1.42108547e-14,63.053 10.888,49.648 25.6,45.797 C33.443,29.843 49.751,19.625 67.62,19.625 C69.776,19.625 71.893,19.785 73.972,20.068 C81.488,7.613 94.831,0 109.564,0 Z M107.199,9.083 C97.569,9.768 88.898,14.627 83.275,22.328 C97.161,27.272 108.045,38.595 112.379,52.757 C112.935,52.727 113.491,52.708 114.048,52.708 C122.361,52.708 129.9,56.079 135.374,61.523 C139.472,56.244 141.821,49.886 142.129,43.129 C140.174,43.535 138.172,43.74 136.134,43.74 C119.923,43.74 106.735,30.551 106.735,14.339 C106.735,12.56 106.89,10.804 107.199,9.083 Z" id="Thunder_Moon" fill="#404040"></path>
    </g>
</svg>