<?xml version="1.0" encoding="UTF-8"?>
<svg width="145px" height="132px" viewBox="0 0 145 132" version="1.1" xmlns="http://www.w3.org/2000/svg" xmlns:xlink="http://www.w3.org/1999/xlink">
    <title>Thunder</title>
    <g id="Page-1" stroke="none" stroke-width="1" fill="none" fill-rule="evenodd">
        <path d="M63.4745,60.2723 L89.8795,60.2803 C91.4365,60.2803 92.8845,61.0863 93.7035,62.4103 C94.5235,63.7353 94.6005,65.3883 93.9075,66.7833 L93.9075,66.7833 L88.3155,78.0303 L97.3485,77.3563 C99.1085,77.2193 100.7775,78.1323 101.6275,79.6763 C102.4755,81.2193 102.3455,83.1173 101.2935,84.5303 L101.2935,84.5303 L67.6525,129.7263 C66.7835,130.8943 65.4315,131.5393 64.0415,131.5393 C63.4665,131.5393 62.8835,131.4283 62.3255,131.1983 C60.4225,130.4123 59.2955,128.4343 59.5895,126.3963 L59.5895,126.3963 L63.4695,99.5063 L50.0415,99.8053 C48.4825,99.8163 47.0515,99.0833 46.1965,97.8023 C45.3425,96.5213 45.2025,94.8913 45.8265,93.4833 L45.8265,93.4833 L59.3595,62.9483 C60.0815,61.3213 61.6935,60.2723 63.4735,60.2723 L63.4735,60.2723 L63.4745,60.2723 Z M66.4015,69.2733 L56.9275,90.6493 L68.5815,90.3893 C68.6145,90.3883 68.6485,90.3883 68.6815,90.3883 C69.9695,90.3883 71.1955,90.9393 72.0505,91.9043 C72.9275,92.8953 73.3245,94.2213 73.1355,95.5303 L73.1355,95.5303 L71.0315,110.1133 L88.1875,87.0653 L81.1015,87.5943 C79.4785,87.7203 77.9345,86.9603 77.0325,85.6183 C76.1305,84.2753 76.0165,82.5523 76.7375,81.1033 L76.7375,81.1033 L82.6165,69.2783 L66.4015,69.2733 Z M67.62,0 C88.672,0 106.517,13.975 112.379,33.132 C112.935,33.102 113.491,33.083 114.049,33.083 C130.734,33.083 144.308,46.657 144.308,63.342 C144.308,80.027 130.734,93.602 114.049,93.602 C111.564,93.602 109.549,91.587 109.549,89.102 C109.549,86.616 111.564,84.602 114.049,84.602 C125.771,84.602 135.308,75.064 135.308,63.342 C135.308,51.666 125.843,42.164 114.184,42.09 C114.339,43.64 114.421,45.211 114.421,46.801 C114.421,48.118 114.364,49.455 114.254,50.776 C113.97,54.152 113.318,57.497 112.316,60.717 C111.715,62.645 109.938,63.881 108.02,63.881 C107.577,63.881 107.127,63.815 106.682,63.677 C104.309,62.938 102.984,60.416 103.722,58.042 C104.53,55.445 105.057,52.747 105.285,50.023 C105.375,48.952 105.421,47.868 105.421,46.801 C105.421,25.958 88.464,9 67.62,9 C55.158,9 43.654,15.167 36.662,25.142 C42.212,25.527 47.58,27.252 52.314,30.187 C54.425,31.497 55.075,34.27 53.766,36.383 C52.456,38.496 49.683,39.145 47.57,37.835 C43.585,35.365 38.988,34.059 34.272,34.059 C20.337,34.059 9,45.396 9,59.33 C9,73.265 20.337,84.602 34.272,84.602 C36.757,84.602 38.772,86.616 38.772,89.102 C38.772,91.587 36.757,93.602 34.272,93.602 C15.374,93.602 0,78.228 0,59.33 C0,43.427 10.888,30.022 25.601,26.172 C33.443,10.217 49.752,0 67.62,0 Z" id="Thunder" fill="#404040"></path>
    </g>
</svg>