<?xml version="1.0" encoding="UTF-8"?>
<svg width="152px" height="152px" viewBox="0 0 152 152" version="1.1" xmlns="http://www.w3.org/2000/svg" xmlns:xlink="http://www.w3.org/1999/xlink">
    <title>Wind_Moon</title>
    <g id="Page-1" stroke="none" stroke-width="1" fill="none" fill-rule="evenodd">
        <path d="M49.7366,125.3663 L95.0656,125.5463 C97.5506,125.5563 99.5576,127.5793 99.5476372,130.0643 C99.5386,132.5433 97.5256,134.5463 95.0476,134.5463 L95.0476,134.5463 L95.0306,134.5463 L49.7186,134.3663 C47.5706,134.3663 45.8086,136.1283 45.8086,138.2933 C45.8086,140.4593 47.5706,142.2203 49.7366,142.2203 C50.3356,142.2203 50.9086,142.0903 51.4376,141.8353 C53.6736,140.7563 56.3666,141.6903 57.4476,143.9283 C58.5286,146.1663 57.5906,148.8573 55.3536,149.9383 C53.5926,150.7893 51.7036,151.2203 49.7366,151.2203 C42.6086,151.2203 36.8086,145.4213 36.8086,138.2933 C36.8086,131.1653 42.6086,125.3663 49.7366,125.3663 L49.7366,125.3663 Z M109.564,-1.27897692e-13 C110.876,-1.27897692e-13 112.23,0.063 113.588,0.189 C115.016,0.321 116.296,1.125 117.033,2.355 C117.771,3.585 117.878,5.094 117.321,6.415 C116.269,8.918 115.735,11.584 115.735,14.34 C115.735,25.589 124.886,34.74 136.134,34.74 C139.066,34.74 141.887,34.133 144.52,32.934 C145.821,32.342 147.326,32.403 148.575,33.1 C149.824,33.796 150.668,35.044 150.848,36.463 C151.058,38.115 151.164,39.844 151.164,41.6 C151.164,51.796 147.536,61.377 140.898,68.952 C143.07,73.124 144.308,77.859 144.308,82.88 C144.308,99.558 130.745,113.126 114.07,113.139 C114.069,113.139 114.067,113.14 114.066,113.14 L114.066,113.14 L68.754,113.319 C61.609,113.319 55.809,107.52 55.809,100.392 C55.809,93.264 61.609,87.465 68.736,87.465 C70.701,87.465 72.591,87.896 74.352,88.746 C76.59,89.827 77.528,92.517 76.448,94.755 C75.366,96.993 72.675,97.932 70.44,96.851 C69.908,96.595 69.335,96.465 68.736,96.465 C66.57,96.465 64.809,98.226 64.809,100.392 C64.809,102.558 66.57,104.319 68.736,104.319 L68.736,104.319 L114.03,104.14 L114.048,104.14 C125.771,104.14 135.308,94.602 135.308,82.88 C135.308,71.204 125.843,61.702 114.184,61.628 C114.339,63.178 114.421,64.749 114.421,66.339 C114.421,67.656 114.364,68.994 114.254,70.314 C113.969,73.695 113.317,77.039 112.316,80.255 C111.715,82.183 109.938,83.419 108.02,83.419 C107.577,83.419 107.127,83.353 106.682,83.215 C104.309,82.476 102.984,79.954 103.722,77.58 C104.529,74.987 105.055,72.288 105.285,69.559 C105.375,68.49 105.421,67.406 105.421,66.339 C105.421,48.428 92.896,33.398 76.147,29.52 C75.7,29.499 75.256,29.395 74.819,29.234 C72.487,28.783 70.082,28.538 67.62,28.538 C55.159,28.538 43.655,34.705 36.662,44.68 C42.212,45.065 47.579,46.789 52.313,49.725 C54.425,51.035 55.074,53.809 53.765,55.921 C52.455,58.033 49.679,58.683 47.568,57.373 C43.585,54.903 38.987,53.597 34.272,53.597 C20.337,53.597 9,64.934 9,78.868 C9,92.803 20.337,104.14 34.272,104.14 C36.757,104.14 38.772,106.154 38.772,108.64 C38.772,111.125 36.757,113.14 34.272,113.14 C15.374,113.14 -1.42108547e-14,97.766 -1.42108547e-14,78.868 C-1.42108547e-14,62.966 10.888,49.561 25.6,45.71 C33.443,29.756 49.751,19.538 67.62,19.538 C69.793,19.538 71.928,19.7 74.024,19.988 C81.549,7.581 94.863,-1.27897692e-13 109.564,-1.27897692e-13 Z M107.199,9.084 C97.599,9.767 88.949,14.598 83.325,22.258 C97.189,27.212 108.051,38.525 112.379,52.67 C112.935,52.64 113.491,52.621 114.048,52.621 C122.379,52.621 129.935,56.006 135.412,61.473 C139.485,56.204 141.822,49.865 142.129,43.129 C140.174,43.536 138.172,43.74 136.134,43.74 C119.923,43.74 106.735,30.551 106.735,14.34 C106.735,12.56 106.89,10.805 107.199,9.084 Z" id="Wind_Moon" fill="#404040"></path>
    </g>
</svg>