<?xml version="1.0" encoding="UTF-8"?>
<svg width="145px" height="132px" viewBox="0 0 145 132" version="1.1" xmlns="http://www.w3.org/2000/svg" xmlns:xlink="http://www.w3.org/1999/xlink">
    <title>Wind</title>
    <g id="Page-1" stroke="none" stroke-width="1" fill="none" fill-rule="evenodd">
        <path d="M49.7368,105.828 L95.0668,106.008 C97.5518,106.018 99.5588,108.041 99.5488372,110.526 C99.5398,113.005 97.5268,115.008 95.0488,115.008 L95.0488,115.008 L95.0318,115.008 L49.7188,114.828 C47.5708,114.828 45.8088,116.59 45.8088,118.755 C45.8088,120.921 47.5708,122.682 49.7368,122.682 C50.3368,122.682 50.9088,122.552 51.4378,122.297 C53.6748,121.218 56.3668,122.152 57.4478,124.39 C58.5288,126.628 57.5908,129.319 55.3538,130.4 C53.5928,131.251 51.7038,131.682 49.7368,131.682 C42.6088,131.682 36.8088,125.883 36.8088,118.755 C36.8088,111.627 42.6088,105.828 49.7368,105.828 L49.7368,105.828 Z M23.737,95.9262 C25.702,95.9262 27.591,96.3572 29.352,97.2082 C31.59,98.2892 32.529,100.9792 31.449,103.2172 C30.368,105.4552 27.674,106.3932 25.44,105.3122 C24.909,105.0562 24.335,104.9262 23.737,104.9262 C21.571,104.9262 19.809,106.6882 19.809,108.8542 C19.809,111.0192 21.571,112.7812 23.737,112.7812 C26.222,112.7812 28.237,114.7952 28.237,117.2812 C28.237,119.7662 26.222,121.7812 23.737,121.7812 C16.609,121.7812 10.809,115.9812 10.809,108.8542 C10.809,101.7262 16.609,95.9262 23.737,95.9262 Z M67.62,-1.27897692e-13 C88.672,-1.27897692e-13 106.517,13.974 112.379,33.132 C112.935,33.102 113.492,33.083 114.049,33.083 C130.734,33.083 144.308,46.657 144.308,63.342 C144.308,80.019 130.745,93.588 114.072,93.601 L114.072,93.601 L114.067,93.601 L68.754,93.781 C61.609,93.781 55.809,87.982 55.809,80.854 C55.809,73.726 61.609,67.926 68.737,67.926 C70.702,67.926 72.591,68.358 74.352,69.208 C76.59,70.289 77.529,72.979 76.449,75.217 C75.367,77.455 72.675,78.394 70.44,77.313 C69.909,77.056 69.335,76.926 68.737,76.926 C66.571,76.926 64.809,78.688 64.809,80.854 C64.809,83.019 66.571,84.781 68.737,84.781 L68.737,84.781 L114.032,84.601 L114.049,84.601 C125.771,84.601 135.308,75.064 135.308,63.342 C135.308,51.665 125.843,42.163 114.184,42.09 C114.339,43.639 114.421,45.211 114.421,46.8 C114.421,48.117 114.365,49.455 114.254,50.776 C113.97,54.152 113.318,57.496 112.316,60.717 C111.715,62.645 109.938,63.881 108.02,63.881 C107.578,63.881 107.127,63.815 106.682,63.676 C104.309,62.938 102.984,60.415 103.722,58.042 C104.531,55.445 105.057,52.747 105.286,50.022 C105.375,48.951 105.421,47.867 105.421,46.8 C105.421,25.957 88.464,9 67.62,9 C55.159,9 43.655,15.167 36.663,25.141 C42.212,25.527 47.58,27.252 52.314,30.187 C54.425,31.496 55.076,34.27 53.766,36.383 C52.456,38.495 49.683,39.144 47.57,37.835 C43.585,35.364 38.988,34.058 34.272,34.058 C20.337,34.058 9,45.395 9,59.33 C9,73.264 20.337,84.601 34.272,84.601 C36.757,84.601 38.772,86.616 38.772,89.101 C38.772,91.587 36.757,93.601 34.272,93.601 C15.374,93.601 0,78.227 0,59.33 C0,43.427 10.888,30.022 25.601,26.172 C33.443,10.217 49.751,-1.27897692e-13 67.62,-1.27897692e-13 Z" id="Wind" fill="#404040"></path>
    </g>
</svg>