<?xml version="1.0" encoding="UTF-8"?>
<svg width="162px" height="162px" viewBox="0 0 162 162" version="1.1" xmlns="http://www.w3.org/2000/svg" xmlns:xlink="http://www.w3.org/1999/xlink">
    <title>Wind_Sun</title>
    <g id="Page-1" stroke="none" stroke-width="1" fill="none" fill-rule="evenodd">
        <path d="M49.7366,135.8233 L95.0666,136.0033 C97.5516,136.0133 99.5586,138.0363 99.5486372,140.5213 C99.5396,143.0003 97.5266,145.0033 95.0486,145.0033 L95.0486,145.0033 L95.0316,145.0033 L49.7186,144.8233 C47.5706,144.8233 45.8086,146.5853 45.8086,148.7503 C45.8086,150.9163 47.5706,152.6773 49.7366,152.6773 C50.3366,152.6773 50.9086,152.5473 51.4376,152.2923 C53.6746,151.2133 56.3666,152.1473 57.4476,154.3853 C58.5286,156.6233 57.5906,159.3143 55.3536,160.3953 C53.5926,161.2463 51.7036,161.6773 49.7366,161.6773 C42.6086,161.6773 36.8086,155.8783 36.8086,148.7503 C36.8086,141.6223 42.6086,135.8233 49.7366,135.8233 L49.7366,135.8233 Z M23.7368,125.9215 C25.7018,125.9215 27.5908,126.3525 29.3518,127.2035 C31.5898,128.2845 32.5288,130.9745 31.4488,133.2125 C30.3668,135.4505 27.6748,136.3885 25.4398,135.3075 C24.9088,135.0515 24.3348,134.9215 23.7368,134.9215 C21.5708,134.9215 19.8088,136.6835 19.8088,138.8495 C19.8088,141.0145 21.5708,142.7765 23.7368,142.7765 C26.2218,142.7765 28.2368,144.7905 28.2368,147.2765 C28.2368,149.7615 26.2218,151.7765 23.7368,151.7765 C16.6088,151.7765 10.8088,145.9765 10.8088,138.8495 C10.8088,131.7215 16.6088,125.9215 23.7368,125.9215 Z M110.278,-1.70530257e-13 C112.764,-1.70530257e-13 114.778,2.015 114.778,4.5 L114.778,4.5 L114.778,19.57 C119.455,20.216 123.818,21.854 127.65,24.265 L127.65,24.265 L137.343,12.713 C138.941,10.809 141.78,10.562 143.683,12.159 C145.586,13.756 145.835,16.595 144.237,18.498 L144.237,18.498 L134.544,30.051 C137.607,33.438 139.966,37.469 141.405,41.911 L141.405,41.911 L156.244,39.294 C158.698,38.865 161.027,40.497 161.457,42.945 C161.889,45.392 160.254,47.726 157.807,48.158 L157.807,48.158 L142.964,50.775 C142.978,51.172 142.994,51.568 142.994,51.969 C142.994,56.258 142.169,60.421 140.603,64.281 L140.603,64.281 L153.637,71.806 C155.789,73.049 156.527,75.801 155.284,77.953 C154.45,79.396 152.938,80.204 151.383,80.204 C150.619,80.204 149.846,80.009 149.137,79.6 L149.137,79.6 L136.087,72.066 C136.006,72.171 135.927,72.276 135.844,72.38 C141.078,77.822 144.308,85.207 144.308,93.337 C144.308,110.015 130.745,123.583 114.071,123.596 C114.069,123.596 114.068,123.597 114.067,123.597 L114.067,123.597 L68.754,123.776 C61.609,123.776 55.809,117.977 55.809,110.849 C55.809,103.721 61.609,97.922 68.736,97.922 C70.701,97.922 72.591,98.353 74.352,99.203 C76.59,100.284 77.528,102.974 76.448,105.212 C75.367,107.45 72.673,108.389 70.44,107.308 C69.908,107.052 69.335,106.922 68.736,106.922 C66.57,106.922 64.809,108.683 64.809,110.849 C64.809,113.015 66.57,114.776 68.736,114.776 L68.736,114.776 L114.031,114.597 L114.049,114.597 C125.771,114.597 135.308,105.059 135.308,93.337 C135.308,81.661 125.843,72.159 114.184,72.085 C114.339,73.635 114.421,75.206 114.421,76.796 C114.421,78.113 114.364,79.451 114.254,80.771 C113.97,84.147 113.318,87.492 112.316,90.712 C111.715,92.64 109.938,93.876 108.02,93.876 C107.577,93.876 107.127,93.81 106.682,93.672 C104.309,92.933 102.984,90.411 103.722,88.037 C104.53,85.44 105.057,82.742 105.285,80.017 C105.375,78.947 105.421,77.863 105.421,76.796 C105.421,55.952 88.464,38.995 67.62,38.995 C55.158,38.995 43.654,45.162 36.662,55.137 C42.212,55.522 47.58,57.247 52.314,60.182 C54.425,61.492 55.075,64.265 53.766,66.378 C52.456,68.49 49.683,69.14 47.569,67.83 C43.585,65.36 38.987,64.054 34.272,64.054 C20.337,64.054 9,75.39 9,89.325 C9,103.26 20.337,114.597 34.272,114.597 C36.757,114.597 38.772,116.611 38.772,119.097 C38.772,121.582 36.757,123.597 34.272,123.597 C15.374,123.597 0,108.223 0,89.325 C0,73.422 10.888,60.017 25.601,56.167 C33.443,40.212 49.751,29.995 67.62,29.995 C73.282,29.995 78.714,31.008 83.742,32.859 C84.451,31.877 85.207,30.939 86.012,30.051 L86.012,30.051 L76.319,18.498 C74.722,16.595 74.971,13.756 76.874,12.159 C78.777,10.562 81.614,10.809 83.214,12.713 L83.214,12.713 L92.914,24.274 C96.796,21.842 101.17,20.213 105.778,19.57 L105.778,19.57 L105.778,4.5 C105.778,2.015 107.793,-1.70530257e-13 110.278,-1.70530257e-13 Z M110.278,28.253 C103.158,28.253 96.473,31.481 92.007,36.869 C101.655,42.784 109.003,52.096 112.379,63.127 C112.935,63.097 113.491,63.078 114.049,63.078 C119.368,63.078 124.369,64.463 128.718,66.884 C129.492,65.93 130.185,64.922 130.795,63.873 L130.795,63.873 L130.817,63.827 C130.823,63.814 130.833,63.805 130.841,63.793 C132.895,60.234 133.994,56.186 133.994,51.969 C133.994,38.891 123.356,28.253 110.278,28.253 Z" id="Wind_Sun" fill="#404040"></path>
    </g>
</svg>