<?xml version="1.0" encoding="UTF-8"?>
<svg width="152px" height="152px" viewBox="0 0 152 152" version="1.1" xmlns="http://www.w3.org/2000/svg" xmlns:xlink="http://www.w3.org/1999/xlink">
    <title>WinteryMix_Moon</title>
    <g id="Page-1" stroke="none" stroke-width="1" fill="none" fill-rule="evenodd">
        <path d="M72.3791,142.399 C74.8641,142.399 76.8791,144.414 76.8791,146.899 L76.8791,146.899 L76.8791,147.164 C76.8791,149.649 74.8641,151.664 72.3791,151.664 C69.8941,151.664 67.8791,149.649 67.8791,147.164 L67.8791,147.164 L67.8791,146.899 C67.8791,144.414 69.8941,142.399 72.3791,142.399 Z M94.8172,120.4396 C97.3032,120.4396 99.3172,122.4546 99.3172,124.9396 L99.3172,124.9396 L99.3172,128.3076 L102.3012,126.7446 C104.5022,125.5896 107.2212,126.4416 108.3752,128.6426 C109.5282,130.8436 108.6792,133.5636 106.4772,134.7166 L106.4772,134.7166 L104.1892,135.9146 L106.4322,137.1956 C108.5892,138.4286 109.3402,141.1766 108.1062,143.3346 C107.2762,144.7886 105.7582,145.6036 104.1952,145.6036 C103.4382,145.6036 102.6722,145.4126 101.9672,145.0106 L101.9672,145.0106 L99.3172,143.4976 L99.3172,146.5486 C99.3172,149.0346 97.3032,151.0486 94.8172,151.0486 C92.3322,151.0486 90.3172,149.0346 90.3172,146.5486 L90.3172,146.5486 L90.3172,143.1816 L87.3342,144.7446 C86.6682,145.0936 85.9532,145.2586 85.2502,145.2586 C83.6292,145.2586 82.0642,144.3806 81.2602,142.8456 C80.1062,140.6446 80.9562,137.9246 83.1582,136.7716 L83.1582,136.7716 L85.4442,135.5736 L83.2032,134.2926 C81.0462,133.0596 80.2952,130.3116 81.5282,128.1536 C82.7602,125.9946 85.5072,125.2456 87.6682,126.4776 L87.6682,126.4776 L90.3172,127.9906 L90.3172,124.9396 C90.3172,122.4546 92.3322,120.4396 94.8172,120.4396 Z M49.9406,130.399 C52.4256,130.399 54.4406,132.414 54.4406,134.899 L54.4406,134.899 L54.4406,135.164 C54.4406,137.649 52.4256,139.664 49.9406,139.664 C47.4556,139.664 45.4406,137.649 45.4406,135.164 L45.4406,135.164 L45.4406,134.899 C45.4406,132.414 47.4556,130.399 49.9406,130.399 Z M72.3391,93.4458 C74.8241,93.4458 76.8391,95.4608 76.8391,97.9458 L76.8391,97.9458 L76.8391,101.3138 L79.8221,99.7508 C82.0241,98.5968 84.7421,99.4478 85.8971,101.6488 C87.0501,103.8508 86.2001,106.5708 83.9981,107.7238 L83.9981,107.7238 L81.7111,108.9218 L83.9531,110.2018 C86.1101,111.4348 86.8611,114.1838 85.6281,116.3418 C84.7981,117.7958 83.2791,118.6108 81.7171,118.6108 C80.9601,118.6108 80.1931,118.4198 79.4881,118.0178 L79.4881,118.0178 L76.8391,116.5048 L76.8391,119.5558 C76.8391,122.0408 74.8241,124.0558 72.3391,124.0558 C69.8541,124.0558 67.8391,122.0408 67.8391,119.5558 L67.8391,119.5558 L67.8391,116.1888 L64.8571,117.7508 C64.1911,118.0998 63.4761,118.2658 62.7731,118.2658 C61.1511,118.2658 59.5871,117.3878 58.7821,115.8528 C57.6291,113.6518 58.4791,110.9318 60.6811,109.7788 L60.6811,109.7788 L62.9671,108.5808 L60.7251,107.2998 C58.5671,106.0668 57.8161,103.3188 59.0501,101.1598 C60.2811,99.0018 63.0281,98.2528 65.1901,99.4848 L65.1901,99.4848 L67.8391,100.9978 L67.8391,97.9458 C67.8391,95.4608 69.8541,93.4458 72.3391,93.4458 Z M49.9406,106.399 C52.4256,106.399 54.4406,108.414 54.4406,110.899 L54.4406,110.899 L54.4406,111.164 C54.4406,113.649 52.4256,115.664 49.9406,115.664 C47.4556,115.664 45.4406,113.649 45.4406,111.164 L45.4406,111.164 L45.4406,110.899 C45.4406,108.414 47.4556,106.399 49.9406,106.399 Z M94.7394,104.0934 C97.2244,104.0934 99.2394,106.1084 99.2394,108.5934 L99.2394,108.5934 L99.2394,108.8594 C99.2394,111.3444 97.2244,113.3594 94.7394,113.3594 C92.2544,113.3594 90.2394,111.3444 90.2394,108.8594 L90.2394,108.8594 L90.2394,108.5934 C90.2394,106.1084 92.2544,104.0934 94.7394,104.0934 Z M109.564,0 C110.876,0 112.23,0.063 113.588,0.188 C115.016,0.32 116.296,1.125 117.033,2.355 C117.771,3.585 117.878,5.093 117.321,6.415 C116.269,8.917 115.735,11.583 115.735,14.34 C115.735,25.588 124.886,34.74 136.134,34.74 C139.066,34.74 141.887,34.132 144.52,32.934 C145.821,32.342 147.327,32.403 148.575,33.1 C149.824,33.796 150.668,35.044 150.848,36.463 C151.058,38.115 151.164,39.843 151.164,41.6 C151.164,51.81 147.526,61.404 140.869,68.983 C143.061,73.169 144.308,77.924 144.308,82.967 C144.308,99.652 130.734,113.227 114.048,113.227 C111.563,113.227 109.548,111.212 109.548,108.727 C109.548,106.241 111.563,104.227 114.048,104.227 C125.771,104.227 135.308,94.689 135.308,82.967 C135.308,71.291 125.843,61.789 114.184,61.715 C114.339,63.265 114.421,64.836 114.421,66.426 C114.421,67.743 114.364,69.08 114.254,70.401 C113.969,73.782 113.317,77.126 112.316,80.342 C111.715,82.27 109.938,83.506 108.02,83.506 C107.577,83.506 107.127,83.44 106.682,83.302 C104.309,82.563 102.984,80.041 103.722,77.667 C104.529,75.074 105.055,72.375 105.285,69.646 C105.375,68.577 105.421,67.493 105.421,66.426 C105.421,45.583 88.464,28.625 67.62,28.625 C55.159,28.625 43.655,34.792 36.662,44.767 C42.212,45.152 47.579,46.876 52.313,49.812 C54.425,51.122 55.074,53.896 53.765,56.008 C52.455,58.12 49.679,58.77 47.568,57.46 C43.585,54.99 38.987,53.684 34.272,53.684 C20.337,53.684 9,65.021 9,78.955 C9,92.89 20.337,104.227 34.272,104.227 C36.757,104.227 38.772,106.241 38.772,108.727 C38.772,111.212 36.757,113.227 34.272,113.227 C15.374,113.227 -1.42108547e-14,97.853 -1.42108547e-14,78.955 C-1.42108547e-14,63.053 10.888,49.648 25.6,45.797 C33.443,29.843 49.751,19.625 67.62,19.625 C69.776,19.625 71.894,19.785 73.973,20.068 C81.489,7.613 94.831,0 109.564,0 Z M49.9406,82.399 C52.4256,82.399 54.4406,84.414 54.4406,86.899 L54.4406,86.899 L54.4406,87.164 C54.4406,89.649 52.4256,91.664 49.9406,91.664 C47.4556,91.664 45.4406,89.649 45.4406,87.164 L45.4406,87.164 L45.4406,86.899 C45.4406,84.414 47.4556,82.399 49.9406,82.399 Z M107.199,9.083 C97.569,9.768 88.898,14.627 83.275,22.328 C97.161,27.272 108.045,38.595 112.379,52.757 C112.935,52.727 113.491,52.708 114.048,52.708 C122.361,52.708 129.9,56.079 135.374,61.523 C139.472,56.244 141.821,49.886 142.129,43.129 C140.175,43.535 138.172,43.74 136.134,43.74 C119.923,43.74 106.735,30.551 106.735,14.34 C106.735,12.56 106.89,10.805 107.199,9.083 Z" id="WinteryMix_Moon" fill="#404040"></path>
    </g>
</svg>