<?xml version="1.0" encoding="UTF-8"?>
<svg width="162px" height="163px" viewBox="0 0 162 163" version="1.1" xmlns="http://www.w3.org/2000/svg" xmlns:xlink="http://www.w3.org/1999/xlink">
    <title>WinteryMix_Sun</title>
    <g id="Page-1" stroke="none" stroke-width="1" fill="none" fill-rule="evenodd">
        <path d="M72.3791,152.7679 C74.8641,152.7679 76.8791,154.7829 76.8791,157.2679 L76.8791,157.2679 L76.8791,157.5329 C76.8791,160.0179 74.8641,162.0329 72.3791,162.0329 C69.8941,162.0329 67.8791,160.0179 67.8791,157.5329 L67.8791,157.5329 L67.8791,157.2679 C67.8791,154.7829 69.8941,152.7679 72.3791,152.7679 Z M94.8172,130.8085 C97.3032,130.8085 99.3172,132.8235 99.3172,135.3085 L99.3172,135.3085 L99.3172,138.6765 L102.3012,137.1135 C104.5032,135.9585 107.2222,136.8105 108.3752,139.0115 C109.5282,141.2125 108.6792,143.9325 106.4772,145.0855 L106.4772,145.0855 L104.1892,146.2835 L106.4322,147.5645 C108.5892,148.7975 109.3402,151.5455 108.1062,153.7035 C107.2762,155.1575 105.7582,155.9725 104.1952,155.9725 C103.4382,155.9725 102.6722,155.7815 101.9672,155.3795 L101.9672,155.3795 L99.3172,153.8665 L99.3172,156.9175 C99.3172,159.4035 97.3032,161.4175 94.8172,161.4175 C92.3322,161.4175 90.3172,159.4035 90.3172,156.9175 L90.3172,156.9175 L90.3172,153.5505 L87.3342,155.1135 C86.6682,155.4625 85.9532,155.6275 85.2502,155.6275 C83.6292,155.6275 82.0642,154.7495 81.2602,153.2145 C80.1062,151.0135 80.9562,148.2935 83.1582,147.1405 L83.1582,147.1405 L85.4442,145.9425 L83.2032,144.6615 C81.0462,143.4285 80.2952,140.6805 81.5282,138.5225 C82.7602,136.3635 85.5062,135.6145 87.6682,136.8465 L87.6682,136.8465 L90.3172,138.3595 L90.3172,135.3085 C90.3172,132.8235 92.3322,130.8085 94.8172,130.8085 Z M49.9406,140.7679 C52.4256,140.7679 54.4406,142.7829 54.4406,145.2679 L54.4406,145.2679 L54.4406,145.5329 C54.4406,148.0179 52.4256,150.0329 49.9406,150.0329 C47.4556,150.0329 45.4406,148.0179 45.4406,145.5329 L45.4406,145.5329 L45.4406,145.2679 C45.4406,142.7829 47.4556,140.7679 49.9406,140.7679 Z M72.3391,103.8147 C74.8241,103.8147 76.8391,105.8297 76.8391,108.3147 L76.8391,108.3147 L76.8391,111.6827 L79.8221,110.1197 C82.0231,108.9657 84.7421,109.8167 85.8971,112.0177 C87.0501,114.2197 86.2001,116.9397 83.9981,118.0927 L83.9981,118.0927 L81.7111,119.2907 L83.9531,120.5707 C86.1111,121.8037 86.8621,124.5527 85.6291,126.7107 C84.7991,128.1647 83.2801,128.9797 81.7181,128.9797 C80.9611,128.9797 80.1941,128.7887 79.4901,128.3867 L79.4901,128.3867 L76.8391,126.8717 L76.8391,129.9247 C76.8391,132.4097 74.8241,134.4247 72.3391,134.4247 C69.8541,134.4247 67.8391,132.4097 67.8391,129.9247 L67.8391,129.9247 L67.8391,126.5577 L64.8571,128.1197 C64.1911,128.4687 63.4761,128.6347 62.7731,128.6347 C61.1511,128.6347 59.5871,127.7567 58.7821,126.2217 C57.6291,124.0207 58.4791,121.3007 60.6811,120.1477 L60.6811,120.1477 L62.9671,118.9487 L60.7261,117.6687 C58.5671,116.4357 57.8171,113.6877 59.0501,111.5287 C60.2821,109.3717 63.0291,108.6217 65.1891,109.8537 L65.1891,109.8537 L67.8391,111.3667 L67.8391,108.3147 C67.8391,105.8297 69.8541,103.8147 72.3391,103.8147 Z M49.9406,116.7679 C52.4256,116.7679 54.4406,118.7829 54.4406,121.2679 L54.4406,121.2679 L54.4406,121.5329 C54.4406,124.0179 52.4256,126.0329 49.9406,126.0329 C47.4556,126.0329 45.4406,124.0179 45.4406,121.5329 L45.4406,121.5329 L45.4406,121.2679 C45.4406,118.7829 47.4556,116.7679 49.9406,116.7679 Z M94.7395,114.4623 C97.2245,114.4623 99.2395,116.4773 99.2395,118.9623 L99.2395,118.9623 L99.2395,119.2283 C99.2395,121.7133 97.2245,123.7283 94.7395,123.7283 C92.2545,123.7283 90.2395,121.7133 90.2395,119.2283 L90.2395,119.2283 L90.2395,118.9623 C90.2395,116.4773 92.2545,114.4623 94.7395,114.4623 Z M110.278,0 C112.764,0 114.778,2.014 114.778,4.5 L114.778,4.5 L114.778,19.569 C119.455,20.215 123.818,21.853 127.65,24.264 L127.65,24.264 L137.343,12.713 C138.941,10.808 141.78,10.561 143.683,12.158 C145.586,13.756 145.835,16.594 144.237,18.498 L144.237,18.498 L134.544,30.05 C137.607,33.437 139.966,37.468 141.405,41.91 L141.405,41.91 L156.244,39.294 C158.707,38.862 161.027,40.497 161.457,42.944 C161.889,45.391 160.254,47.725 157.807,48.157 L157.807,48.157 L142.963,50.774 C142.978,51.171 142.994,51.568 142.994,51.968 C142.994,56.257 142.169,60.42 140.603,64.28 L140.603,64.28 L153.637,71.805 C155.789,73.048 156.527,75.8 155.284,77.952 C154.45,79.395 152.938,80.203 151.383,80.203 C150.619,80.203 149.846,80.008 149.137,79.599 L149.137,79.599 L136.087,72.065 C136.006,72.169 135.927,72.275 135.844,72.379 C141.078,77.821 144.308,85.206 144.308,93.336 C144.308,110.021 130.734,123.596 114.049,123.596 C111.564,123.596 109.549,121.581 109.549,119.096 C109.549,116.61 111.564,114.596 114.049,114.596 C125.771,114.596 135.308,105.058 135.308,93.336 C135.308,81.66 125.843,72.158 114.184,72.084 C114.339,73.634 114.421,75.205 114.421,76.795 C114.421,78.112 114.364,79.449 114.254,80.77 C113.97,84.146 113.318,87.491 112.316,90.711 C111.715,92.639 109.938,93.875 108.02,93.875 C107.577,93.875 107.127,93.809 106.682,93.671 C104.309,92.932 102.984,90.41 103.722,88.036 C104.53,85.439 105.057,82.741 105.285,80.017 C105.375,78.946 105.421,77.862 105.421,76.795 C105.421,55.952 88.464,38.994 67.62,38.994 C55.158,38.994 43.654,45.161 36.662,55.136 C42.212,55.521 47.58,57.246 52.314,60.181 C54.425,61.491 55.075,64.264 53.766,66.377 C52.456,68.489 49.683,69.139 47.569,67.829 C43.585,65.359 38.987,64.053 34.272,64.053 C20.337,64.053 9,75.389 9,89.324 C9,103.259 20.337,114.596 34.272,114.596 C36.757,114.596 38.772,116.61 38.772,119.096 C38.772,121.581 36.757,123.596 34.272,123.596 C15.374,123.596 0,108.222 0,89.324 C0,73.421 10.888,60.016 25.601,56.166 C33.443,40.211 49.752,29.994 67.62,29.994 C73.283,29.994 78.714,31.007 83.742,32.858 C84.451,31.876 85.207,30.939 86.012,30.05 L86.012,30.05 L76.319,18.498 C74.722,16.594 74.971,13.756 76.874,12.158 C78.777,10.561 81.614,10.808 83.214,12.713 L83.214,12.713 L92.914,24.273 C96.795,21.841 101.17,20.212 105.778,19.569 L105.778,19.569 L105.778,4.5 C105.778,2.014 107.793,0 110.278,0 Z M49.9406,92.7679 C52.4256,92.7679 54.4406,94.7829 54.4406,97.2679 L54.4406,97.2679 L54.4406,97.5329 C54.4406,100.0179 52.4256,102.0329 49.9406,102.0329 C47.4556,102.0329 45.4406,100.0179 45.4406,97.5329 L45.4406,97.5329 L45.4406,97.2679 C45.4406,94.7829 47.4556,92.7679 49.9406,92.7679 Z M110.278,28.252 C103.158,28.252 96.472,31.48 92.007,36.868 C101.655,42.783 109.003,52.095 112.379,63.126 C112.935,63.096 113.491,63.077 114.049,63.077 C119.368,63.077 124.369,64.462 128.718,66.883 C129.492,65.929 130.185,64.921 130.795,63.872 C130.804,63.857 130.808,63.841 130.817,63.826 C130.823,63.813 130.833,63.804 130.841,63.792 C132.895,60.233 133.994,56.185 133.994,51.968 C133.994,38.891 123.356,28.252 110.278,28.252 Z" id="WinteryMix_Sun" fill="#404040"></path>
    </g>
</svg>