<?xml version="1.0" encoding="UTF-8"?>
<svg width="145px" height="133px" viewBox="0 0 145 133" version="1.1" xmlns="http://www.w3.org/2000/svg" xmlns:xlink="http://www.w3.org/1999/xlink">
    <title>WinteryMix</title>
    <g id="Page-1" stroke="none" stroke-width="1" fill="none" fill-rule="evenodd">
        <path d="M72.3791,122.774 C74.8641,122.774 76.8791,124.789 76.8791,127.274 L76.8791,127.274 L76.8791,127.539 C76.8791,130.024 74.8641,132.039 72.3791,132.039 C69.8941,132.039 67.8791,130.024 67.8791,127.539 L67.8791,127.539 L67.8791,127.274 C67.8791,124.789 69.8941,122.774 72.3791,122.774 Z M94.8172,100.8146 C97.3032,100.8146 99.3172,102.8296 99.3172,105.3146 L99.3172,105.3146 L99.3172,108.6826 L102.3012,107.1196 C104.5002,105.9646 107.2222,106.8166 108.3752,109.0176 C109.5282,111.2186 108.6792,113.9386 106.4772,115.0916 L106.4772,115.0916 L104.1892,116.2896 L106.4322,117.5706 C108.5892,118.8036 109.3402,121.5516 108.1062,123.7096 C107.2762,125.1636 105.7582,125.9786 104.1952,125.9786 C103.4382,125.9786 102.6722,125.7876 101.9672,125.3856 L101.9672,125.3856 L99.3172,123.8726 L99.3172,126.9236 C99.3172,129.4096 97.3032,131.4236 94.8172,131.4236 C92.3322,131.4236 90.3172,129.4096 90.3172,126.9236 L90.3172,126.9236 L90.3172,123.5566 L87.3342,125.1196 C86.6682,125.4686 85.9532,125.6336 85.2502,125.6336 C83.6292,125.6336 82.0642,124.7556 81.2602,123.2206 C80.1062,121.0196 80.9562,118.2996 83.1582,117.1466 L83.1582,117.1466 L85.4442,115.9486 L83.2032,114.6676 C81.0462,113.4346 80.2952,110.6866 81.5282,108.5286 C82.7602,106.3696 85.5062,105.6206 87.6682,106.8526 L87.6682,106.8526 L90.3172,108.3656 L90.3172,105.3146 C90.3172,102.8296 92.3322,100.8146 94.8172,100.8146 Z M49.9406,110.774 C52.4256,110.774 54.4406,112.789 54.4406,115.274 L54.4406,115.274 L54.4406,115.539 C54.4406,118.024 52.4256,120.039 49.9406,120.039 C47.4556,120.039 45.4406,118.024 45.4406,115.539 L45.4406,115.539 L45.4406,115.274 C45.4406,112.789 47.4556,110.774 49.9406,110.774 Z M72.3391,73.8208 C74.8241,73.8208 76.8391,75.8358 76.8391,78.3208 L76.8391,78.3208 L76.8391,81.6888 L79.8221,80.1258 C82.0231,78.9718 84.7421,79.8228 85.8971,82.0238 C87.0501,84.2258 86.2001,86.9458 83.9981,88.0988 L83.9981,88.0988 L81.7111,89.2968 L83.9531,90.5768 C86.1111,91.8098 86.8621,94.5588 85.6291,96.7168 C84.7991,98.1708 83.2801,98.9858 81.7181,98.9858 C80.9611,98.9858 80.1941,98.7948 79.4901,98.3928 L79.4901,98.3928 L76.8391,96.8778 L76.8391,99.9308 C76.8391,102.4158 74.8241,104.4308 72.3391,104.4308 C69.8541,104.4308 67.8391,102.4158 67.8391,99.9308 L67.8391,99.9308 L67.8391,96.5638 L64.8571,98.1258 C64.1911,98.4748 63.4761,98.6408 62.7731,98.6408 C61.1511,98.6408 59.5871,97.7628 58.7821,96.2278 C57.6291,94.0268 58.4791,91.3068 60.6811,90.1538 L60.6811,90.1538 L62.9671,88.9548 L60.7261,87.6748 C58.5671,86.4418 57.8171,83.6938 59.0501,81.5348 C60.2811,79.3778 63.0291,78.6278 65.1891,79.8598 L65.1891,79.8598 L67.8391,81.3728 L67.8391,78.3208 C67.8391,75.8358 69.8541,73.8208 72.3391,73.8208 Z M49.9406,86.774 C52.4256,86.774 54.4406,88.789 54.4406,91.274 L54.4406,91.274 L54.4406,91.539 C54.4406,94.024 52.4256,96.039 49.9406,96.039 C47.4556,96.039 45.4406,94.024 45.4406,91.539 L45.4406,91.539 L45.4406,91.274 C45.4406,88.789 47.4556,86.774 49.9406,86.774 Z M94.7395,84.4684 C97.2245,84.4684 99.2395,86.4834 99.2395,88.9684 L99.2395,88.9684 L99.2395,89.2344 C99.2395,91.7194 97.2245,93.7344 94.7395,93.7344 C92.2545,93.7344 90.2395,91.7194 90.2395,89.2344 L90.2395,89.2344 L90.2395,88.9684 C90.2395,86.4834 92.2545,84.4684 94.7395,84.4684 Z M67.62,0 C88.672,0 106.517,13.975 112.379,33.132 C112.935,33.102 113.491,33.083 114.049,33.083 C130.734,33.083 144.308,46.657 144.308,63.342 C144.308,80.027 130.734,93.602 114.049,93.602 C111.564,93.602 109.549,91.587 109.549,89.102 C109.549,86.616 111.564,84.602 114.049,84.602 C125.771,84.602 135.308,75.064 135.308,63.342 C135.308,51.666 125.843,42.164 114.184,42.09 C114.339,43.64 114.421,45.211 114.421,46.801 C114.421,48.118 114.364,49.455 114.254,50.776 C113.97,54.152 113.318,57.497 112.316,60.717 C111.715,62.645 109.938,63.881 108.02,63.881 C107.577,63.881 107.127,63.815 106.682,63.677 C104.309,62.938 102.984,60.416 103.722,58.042 C104.53,55.445 105.057,52.747 105.285,50.023 C105.375,48.952 105.421,47.868 105.421,46.801 C105.421,25.958 88.464,9 67.62,9 C55.158,9 43.654,15.167 36.662,25.142 C42.212,25.527 47.58,27.252 52.314,30.187 C54.425,31.497 55.075,34.27 53.766,36.383 C52.456,38.495 49.683,39.145 47.57,37.835 C43.585,35.365 38.988,34.059 34.272,34.059 C20.337,34.059 9,45.396 9,59.33 C9,73.265 20.337,84.602 34.272,84.602 C36.757,84.602 38.772,86.616 38.772,89.102 C38.772,91.587 36.757,93.602 34.272,93.602 C15.374,93.602 0,78.228 0,59.33 C0,43.427 10.888,30.022 25.601,26.172 C33.443,10.217 49.752,0 67.62,0 Z M49.9406,62.774 C52.4256,62.774 54.4406,64.789 54.4406,67.274 L54.4406,67.274 L54.4406,67.539 C54.4406,70.024 52.4256,72.039 49.9406,72.039 C47.4556,72.039 45.4406,70.024 45.4406,67.539 L45.4406,67.539 L45.4406,67.274 C45.4406,64.789 47.4556,62.774 49.9406,62.774 Z" id="WinteryMix" fill="#404040"></path>
    </g>
</svg>